<svg xmlns="http://www.w3.org/2000/svg" xml:space="preserve" width="48" height="48" viewBox="0 0 12.7 12.7"><g transform="translate(.312 -.318)"><circle cx="6.038" cy="6.668" r="6.35" style="display:inline;fill:#fff;fill-opacity:1;stroke-width:.355926"/><path d="m7.384 2.913.056.065-.005.005 1.217 1.372-.289.255-1.179-1.32-.7.62L7.803 5.4l-.337.297L6.147 4.21l-1.671 6.965-.225.199.042.047-.129.115 1.276 1.44a6.35 6.35 0 0 0 .598.043 6.35 6.35 0 0 0 6.35-6.35 6.35 6.35 0 0 0-.037-.678l-2.283-2.57Z" style="display:inline;fill:#024d42;fill-opacity:.2;stroke-width:.489242"/><path d="m8.62 1.785-2.19.078 1.456 1.636 2.19-.077ZM6.775 2.842l-.404.947.939 1.056 1.45-.052.406-.946-1.452.05ZM4.18 3.38a.836.836 0 0 0-.288.064c-.704.276-.199.813-.08.928-.703.678-.672 1.884-.672 1.884s.104-.74 0 .014c-.102.755.08 3.705.983 4.495.075.066.158.122.246.17-.134.145-.38.457-.19.623.205.178.489-.279.592-.465.27.073.57.102.878.115.35.015.689-.011.952-.09.11.194.384.627.584.453.203-.177-.086-.517-.212-.647a.504.504 0 0 0 .04-.042c.218-.262.417-.819.538-1.637.12-.82.44-2.011.442-2.65.002-.357-.019-.9-.16-1.412l-.772.059-1.21-1.375h-.024a6.259 6.259 0 0 0-1.167.098c-.013-.174-.085-.591-.48-.585Zm5.398.564-.55 1.285.332.141.55-1.284Z" style="display:inline;fill:#04cbb0;fill-opacity:1;stroke:none;stroke-width:.123045"/></g></svg>