<?xml version="1.0" encoding="UTF-8" standalone="no"?>
<!-- Created with Inkscape (http://www.inkscape.org/) -->

<svg
   width="48"
   height="48"
   viewBox="0 0 12.7 12.7"
   version="1.1"
   id="svg1"
   inkscape:version="1.3 (0e150ed6c4, 2023-07-21)"
   sodipodi:docname="ico.svg"
   xml:space="preserve"
   inkscape:export-filename="cr.svg"
   inkscape:export-xdpi="96"
   inkscape:export-ydpi="96"
   xmlns:inkscape="http://www.inkscape.org/namespaces/inkscape"
   xmlns:sodipodi="http://sodipodi.sourceforge.net/DTD/sodipodi-0.dtd"
   xmlns="http://www.w3.org/2000/svg"
   xmlns:svg="http://www.w3.org/2000/svg"><sodipodi:namedview
     id="namedview1"
     pagecolor="#ffffff"
     bordercolor="#000000"
     borderopacity="0.25"
     inkscape:showpageshadow="2"
     inkscape:pageopacity="0.0"
     inkscape:pagecheckerboard="0"
     inkscape:deskcolor="#d1d1d1"
     inkscape:document-units="mm"
     inkscape:zoom="16"
     inkscape:cx="5.75"
     inkscape:cy="34.375"
     inkscape:window-width="3840"
     inkscape:window-height="2054"
     inkscape:window-x="-11"
     inkscape:window-y="-11"
     inkscape:window-maximized="1"
     inkscape:current-layer="layer1" /><defs
     id="defs1" /><g
     inkscape:label="Layer 1"
     inkscape:groupmode="layer"
     id="layer1"
     transform="translate(0.31212543,-0.31806847)"><rect
       style="display:none;fill:#61b79d;fill-opacity:0.173838;stroke-width:0.314125"
       id="rect6"
       width="12.931511"
       height="12.964583"
       x="-0.22944321"
       y="0.2023133"
       inkscape:label="haikei" /><g
       inkscape:label="Layer 1"
       inkscape:groupmode="layer"
       id="layer1-6"
       transform="translate(0.21497439,0.5126304)"
       style="display:none"><circle
         style="display:inline;fill:#61b79d;fill-opacity:0.173838;stroke-width:0.354999"
         id="path5-2"
         cx="6.0709472"
         cy="6.6680684"
         r="6.3334637"
         inkscape:label="maru" /><path
         id="rect1-1"
         style="display:inline;fill:#000000;fill-opacity:1;stroke:none;stroke-width:0.123045"
         d="m 8.8756596,1.9669834 -2.1890934,0.077607 1.4560005,1.6364035 2.1890083,-0.07741 z M 9.8345608,4.1251199 9.2851418,5.4096908 9.616542,5.5514331 10.165962,4.2668622 Z M 9.4230739,4.0282293 7.9718569,4.0795762 7.0328904,3.0243671 6.6279132,3.9712253 l 0.938882,1.0554064 1.451217,-0.051347 z"
         inkscape:label="hat" /><path
         style="fill:#e596d9;fill-opacity:0.714286;stroke-width:0.354999"
         d="M 4.3792992,10.946211 C 3.4771303,10.155288 3.2943521,7.2058932 3.3972561,6.4509451 c 0.1029041,-0.7549481 -0.00108,-0.014387 -0.00108,-0.014387 0,0 -0.040736,-1.5753805 1.0225879,-2.1373728 C 5.0050564,3.9893158 7.0185403,3.9302897 7.4805588,4.315091 8.1851905,4.9019575 8.2527552,6.1364506 8.2496257,6.7755554 8.2464962,7.4146603 7.9279068,8.6066731 7.8072755,9.4255228 7.6866443,10.244373 7.4876937,10.800648 7.2698406,11.062632 7.0519875,11.324617 6.4927612,11.413708 5.9055828,11.389228 5.3184044,11.364748 4.7605869,11.280482 4.3792992,10.946211 Z"
         id="path1-5"
         sodipodi:nodetypes="szcsszzzzs"
         inkscape:label="body" /><path
         style="fill:#e596d9;fill-opacity:0.714286;stroke-width:0.354999"
         d="m 4.095593,4.5773743 c 0,0 -0.7382286,-0.6429275 0.052991,-0.9520142 0.7912197,-0.3090867 0.7709871,0.594854 0.7709871,0.594854"
         id="path2-7"
         sodipodi:nodetypes="czc"
         inkscape:label="mimi" /><path
         style="fill:#e596d9;fill-opacity:0.714286;stroke-width:0.354999"
         d="m 7.1761122,11.051248 c 0,0 0.519565,0.479018 0.2654605,0.700325 C 7.1874683,11.972879 6.8095847,11.2107 6.8095847,11.2107"
         id="path4-6"
         sodipodi:nodetypes="czc"
         inkscape:label="asi" /><path
         style="fill:#e596d9;fill-opacity:0.714286;stroke-width:0.354999"
         d="m 4.7013306,11.038536 c 0,0 -0.519565,0.479018 -0.2654605,0.700325 0.2541044,0.221306 0.631988,-0.540873 0.631988,-0.540873"
         id="path4-8-5"
         sodipodi:nodetypes="czc"
         inkscape:label="asi" /></g><circle
       style="display:inline;fill:#ffffff;fill-opacity:1;stroke-width:0.355926"
       id="path5-5"
       cx="6.0378747"
       cy="6.6680684"
       inkscape:label="maru"
       r="6.3499999" /><path
       id="rect8-4"
       style="display:none;fill:#365450;fill-opacity:0.2;stroke-width:0.489242"
       inkscape:label="kage"
       d="M 3.593859,7.0767311 3.5935658,7.1627761 3.5866137,7.16283 3.586852,8.9968449 3.2017326,8.9966812 3.1943859,7.2267926 2.2590532,7.2265544 2.2587639,9.2154503 1.8095721,9.2151304 1.8095188,7.2266213 -4.06073,11.330935 l -0.3001906,-1.69e-4 1.865e-4,0.06368 -0.1727755,1.88e-4 -5e-7,1.981557 5.17197774,4.582699 4.63273446,-5.228447 -0.00458,-3.4935312 z"
       transform="rotate(-41.542971)" /><path
       id="rect8-4-5"
       style="display:inline;fill:#024d42;fill-opacity:0.2;stroke-width:0.489242"
       inkscape:label="kagemaru"
       d="m 7.3835289,2.9132589 0.056844,0.064595 -0.00517,0.00465 L 8.6516685,4.3550314 8.363314,4.6103129 7.1840578,3.2904969 6.4838422,3.910614 7.8026247,5.3994121 7.4662112,5.6970683 6.1474286,4.2087871 4.475696,11.173737 l -0.2247925,0.198954 0.042375,0.04754 -0.1291911,0.114722 1.2764079,1.440222 a 6.3499999,6.3499999 0 0 0 0.5973796,0.04289 6.3499999,6.3499999 0 0 0 6.3500001,-6.3499995 6.3499999,6.3499999 0 0 0 -0.03721,-0.6779948 L 10.06812,3.4207215 Z" /><path
       id="rect1"
       style="display:inline;fill:#04cbb0;fill-opacity:1;stroke:none;stroke-width:0.123045"
       inkscape:label="i"
       d="M 8.6191124,1.7851624 6.4300987,1.862677 7.8863406,3.4992696 10.075354,3.421755 Z M 6.7763308,2.8424622 6.3717043,3.7891744 7.3106651,4.8449239 8.7617393,4.7932475 9.1668825,3.8465353 7.7152916,3.8976949 Z M 4.1801068,3.3793803 C 4.0986226,3.3807566 4.0035341,3.3999938 3.8922691,3.4434591 3.187607,3.7187324 3.693009,4.256184 3.8126874,4.3710511 3.1086879,5.0491722 3.1398602,6.254657 3.1398602,6.254657 c 0,0 0.1039374,-0.7404763 0.00103,0.014469 -0.1029037,0.754946 0.079686,3.7044126 0.9818522,4.495333 0.075259,0.06598 0.1580976,0.121537 0.2459798,0.169499 -0.1339761,0.144587 -0.3802297,0.456788 -0.1891357,0.623218 0.2042117,0.177853 0.4879827,-0.279155 0.5916951,-0.465605 0.2705469,0.07315 0.5700636,0.102918 0.8779826,0.115755 0.3494311,0.01457 0.6883019,-0.01154 0.9518799,-0.08992 0.109073,0.193577 0.3842253,0.626109 0.5839437,0.452169 0.2027139,-0.17655 -0.086419,-0.51646 -0.2118734,-0.646989 0.014235,-0.01356 0.028146,-0.02723 0.040308,-0.04186 C 7.2313781,10.618747 7.4303296,10.062469 7.5509605,9.2436219 7.6715915,8.4247746 7.9901813,7.2327575 7.9933108,6.5936544 7.9950589,6.2366607 7.9741603,5.694224 7.8331138,5.182371 L 7.0605512,5.2407654 5.8513226,3.8656555 c -0.00809,-6.13e-5 -0.016187,3.24e-5 -0.024288,0 l -5.167e-4,0.00103 v -0.00103 c -0.4088568,-0.0016 -0.830997,0.032726 -1.166337,0.098185 C 4.647179,3.790411 4.5750948,3.3727091 4.1801068,3.3793803 Z M 9.5782269,3.9431702 9.0289065,5.2278463 9.3601524,5.3694397 9.9094729,4.0847636 Z" /><path
       id="rect8-4-9"
       style="display:none;fill:#375551;fill-opacity:0.2;stroke-width:0.489242"
       inkscape:label="kagec"
       d="m -4.1976734,-3.9369686 -2.6845907,-0.5074626 0.056844,0.064596 -0.00517,0.00465 1.2164632,1.372526 -0.2883562,0.255283 -1.1792561,-1.3198159 -0.7002157,0.6201171 1.3187825,1.488798 -0.3364136,0.2976563 -1.3187824,-1.4882813 -1.6717328,6.9649495 -0.2247918,0.1989544 0.042371,0.047538 -0.129191,0.1147223 5.1330205,5.7929282 c 1.9163603,-2.6036807 4.23856978,-4.006713 5.48028897,-8.6061945 z"
       sodipodi:nodetypes="cccccccccccccccccc" /></g></svg>
