<?xml version="1.0" encoding="UTF-8" standalone="no"?>
<!-- Created with Inkscape (http://www.inkscape.org/) -->

<svg
   width="48"
   height="48"
   viewBox="0 0 12.7 12.7"
   version="1.1"
   id="svg1"
   inkscape:version="1.3 (0e150ed6c4, 2023-07-21)"
   sodipodi:docname="sq.svg"
   xml:space="preserve"
   inkscape:export-filename="cr.svg"
   inkscape:export-xdpi="96"
   inkscape:export-ydpi="96"
   xmlns:inkscape="http://www.inkscape.org/namespaces/inkscape"
   xmlns:sodipodi="http://sodipodi.sourceforge.net/DTD/sodipodi-0.dtd"
   xmlns="http://www.w3.org/2000/svg"
   xmlns:svg="http://www.w3.org/2000/svg"><sodipodi:namedview
     id="namedview1"
     pagecolor="#ffffff"
     bordercolor="#000000"
     borderopacity="0.25"
     inkscape:showpageshadow="2"
     inkscape:pageopacity="0.0"
     inkscape:pagecheckerboard="0"
     inkscape:deskcolor="#d1d1d1"
     inkscape:document-units="mm"
     inkscape:zoom="16"
     inkscape:cx="5.78125"
     inkscape:cy="34.375"
     inkscape:window-width="3840"
     inkscape:window-height="2054"
     inkscape:window-x="-11"
     inkscape:window-y="-11"
     inkscape:window-maximized="1"
     inkscape:current-layer="layer1" /><defs
     id="defs1" /><g
     inkscape:label="Layer 1"
     inkscape:groupmode="layer"
     id="layer1"
     transform="translate(0.31212543,-0.31806847)"><rect
       style="display:inline;fill:#ffffff;fill-opacity:1;stroke-width:0.308107"
       id="rect6"
       width="12.7"
       height="12.7"
       x="-0.31212544"
       y="0.31806847"
       inkscape:label="haikei" /><path
       id="rect8-4"
       style="display:inline;fill:#365450;fill-opacity:0.2;stroke-width:0.489242"
       inkscape:label="kage"
       d="M 3.593859,7.0767311 3.5935658,7.1627761 3.5866137,7.16283 3.586852,8.9968449 3.2017326,8.9966812 3.1943859,7.2267926 2.2590532,7.2265544 2.2587639,9.2154503 1.8095721,9.2151304 1.8095188,7.2266213 -4.06073,11.330935 l -0.3001906,-1.69e-4 1.865e-4,0.06368 -0.1727755,1.88e-4 -5e-7,1.981557 5.17197774,4.582699 4.63273446,-5.228447 -0.00458,-3.4935312 z"
       transform="rotate(-41.542971)" /><path
       id="rect1"
       style="display:inline;fill:#04cbb0;fill-opacity:1;stroke:none;stroke-width:0.123045"
       inkscape:label="i"
       d="M 8.6191124,1.7851624 6.4300987,1.862677 7.8863406,3.4992696 10.075354,3.421755 Z M 6.7763308,2.8424622 6.3717043,3.7891744 7.3106651,4.8449239 8.7617393,4.7932475 9.1668825,3.8465353 7.7152916,3.8976949 Z M 4.1801068,3.3793803 C 4.0986226,3.3807566 4.0035341,3.3999938 3.8922691,3.4434591 3.187607,3.7187324 3.693009,4.256184 3.8126874,4.3710511 3.1086879,5.0491722 3.1398602,6.254657 3.1398602,6.254657 c 0,0 0.1039374,-0.7404763 0.00103,0.014469 -0.1029037,0.754946 0.079686,3.7044126 0.9818522,4.495333 0.075259,0.06598 0.1580976,0.121537 0.2459798,0.169499 -0.1339761,0.144587 -0.3802297,0.456788 -0.1891357,0.623218 0.2042117,0.177853 0.4879827,-0.279155 0.5916951,-0.465605 0.2705469,0.07315 0.5700636,0.102918 0.8779826,0.115755 0.3494311,0.01457 0.6883019,-0.01154 0.9518799,-0.08992 0.109073,0.193577 0.3842253,0.626109 0.5839437,0.452169 0.2027139,-0.17655 -0.086419,-0.51646 -0.2118734,-0.646989 0.014235,-0.01356 0.028146,-0.02723 0.040308,-0.04186 C 7.2313781,10.618747 7.4303296,10.062469 7.5509605,9.2436219 7.6715915,8.4247746 7.9901813,7.2327575 7.9933108,6.5936544 7.9950589,6.2366607 7.9741603,5.694224 7.8331138,5.182371 L 7.0605512,5.2407654 5.8513226,3.8656555 c -0.00809,-6.13e-5 -0.016187,3.24e-5 -0.024288,0 l -5.167e-4,0.00103 v -0.00103 c -0.4088568,-0.0016 -0.830997,0.032726 -1.166337,0.098185 C 4.647179,3.790411 4.5750948,3.3727091 4.1801068,3.3793803 Z M 9.5782269,3.9431702 9.0289065,5.2278463 9.3601524,5.3694397 9.9094729,4.0847636 Z" /></g></svg>
