<?xml version="1.0" encoding="UTF-8" standalone="no"?>
<!-- Created with Inkscape (http://www.inkscape.org/) -->

<svg
   width="131.849mm"
   height="105.126mm"
   viewBox="0 0 131.849 105.126"
   version="1.1"
   id="svg1"
   inkscape:version="1.3 (0e150ed6c4, 2023-07-21)"
   sodipodi:docname="map4.svg"
   xml:space="preserve"
   inkscape:export-filename="mapz.png"
   inkscape:export-xdpi="300"
   inkscape:export-ydpi="300"
   xmlns:inkscape="http://www.inkscape.org/namespaces/inkscape"
   xmlns:sodipodi="http://sodipodi.sourceforge.net/DTD/sodipodi-0.dtd"
   xmlns="http://www.w3.org/2000/svg"
   xmlns:svg="http://www.w3.org/2000/svg"><sodipodi:namedview
     id="namedview1"
     pagecolor="#ffffff"
     bordercolor="#000000"
     borderopacity="0.25"
     inkscape:showpageshadow="2"
     inkscape:pageopacity="0.0"
     inkscape:pagecheckerboard="0"
     inkscape:deskcolor="#d1d1d1"
     inkscape:document-units="mm"
     inkscape:zoom="2.8284272"
     inkscape:cx="314.13218"
     inkscape:cy="285.31758"
     inkscape:window-width="3840"
     inkscape:window-height="2054"
     inkscape:window-x="-11"
     inkscape:window-y="-11"
     inkscape:window-maximized="1"
     inkscape:current-layer="layer3"
     showgrid="false"
     showguides="true" /><defs
     id="defs1" /><rect
     style="display:inline;fill:#f8f7f7;fill-opacity:1;stroke:#000000;stroke-width:0.351;stroke-dasharray:none;stroke-opacity:1"
     id="rect55"
     width="131.498"
     height="104.775"
     x="0.17550001"
     y="0.17550001"
     inkscape:label="ground" /><g
     inkscape:groupmode="layer"
     id="layer3"
     inkscape:label="miti"
     style="display:inline"
     transform="translate(0.00165327,-0.0019296)"><path
       id="path3061"
       style="color:#000000;fill:#d8e0e7;stroke:#000000;stroke-width:0.0529167;stroke-dasharray:none;stroke-opacity:1"
       d="M 75.307962 0.35126228 L 75.307962 9.9878834 L 67.830382 9.9878834 L 67.830382 9.3553638 L 65.278083 9.3553638 L 65.278083 9.9878834 L 45.668427 9.9878834 L 45.668427 8.2474211 L 43.595686 8.2474211 L 43.595686 9.9878834 L 43.592585 9.9878834 L 43.592585 32.572551 L 43.466495 32.572551 L 43.367276 35.797161 L 43.733145 35.797161 L 43.733145 40.435637 L 4.6719633 40.435637 L 4.6719633 33.646904 L 0.34716265 33.646904 L 0.34664588 36.010584 L 3.5226794 36.010584 L 3.5226794 44.220419 L 1.1584826 46.14485 L 1.1584826 62.045171 L 0.3435453 62.045171 L 0.35181353 64.945252 L 9.4019071 64.945252 C 9.3561772 65.851538 9.360753 68.237485 9.380203 70.616224 L 7.9229276 70.616224 L 7.9229276 72.276588 L 9.4406644 72.276588 L 9.4406644 75.843295 L 7.0170398 75.843295 L 7.0170398 77.641118 L 3.644119 77.641118 L 3.644119 95.638986 L 8.7812732 100.895 L 13.708621 100.895 L 13.708621 100.5436 L 8.9295845 100.5436 L 3.9960355 95.496359 L 3.9960355 77.992518 L 7.0170398 77.992518 L 7.0170398 82.297682 L 9.3553983 82.297682 L 9.3553983 78.626071 L 11.216783 78.626071 L 11.216783 87.467392 L 14.912165 89.602145 L 14.912165 100.31777 L 15.263565 100.31777 L 15.263565 89.399057 L 11.566116 87.264303 L 11.566116 78.626071 L 21.392906 78.626071 L 21.392906 84.674797 L 19.651927 84.674797 L 19.651927 88.728814 L 21.392906 88.728814 L 21.392906 96.350571 L 21.390323 96.350571 L 20.650316 100.25576 L 21.78048 100.25576 L 22.507567 96.419817 L 46.568114 96.419817 L 46.568114 103.99093 L 48.343199 103.99093 L 48.343199 96.419817 L 80.871963 96.419817 L 80.871963 104.7914 L 88.015713 104.77486 L 88.015713 96.419817 L 103.4928 96.419817 L 103.4928 93.242233 L 94.138337 93.242233 L 94.138337 90.164902 L 90.396447 90.164902 C 90.00497 89.614357 89.529316 88.984588 89.529316 87.93403 C 89.529316 87.321157 89.719974 86.783537 89.927741 86.203386 C 90.135509 85.623235 90.359239 85.00068 90.359239 84.250534 C 90.359239 83.737648 90.039922 83.272642 89.757726 82.640813 C 89.49257 82.047137 89.236358 81.330405 89.206338 80.426995 L 131.46474 80.426995 L 131.46526 67.009726 L 129.9191 67.009726 L 129.9191 51.643739 L 128.79514 51.649423 L 128.79514 35.797161 L 131.50246 35.797161 L 131.49626 32.572551 L 112.16979 32.572551 L 112.16979 27.216806 L 110.80915 27.216806 L 110.80915 32.572551 L 102.85305 32.572551 L 102.85305 28.416216 L 106.2208 28.416216 L 106.2208 24.253163 L 102.68924 24.253163 L 102.68924 13.028008 L 110.81536 13.028008 L 110.81536 17.365728 L 112.04577 17.365728 L 112.04577 13.028008 L 123.03528 13.028008 L 123.03528 16.641224 L 124.39179 16.641224 L 124.39179 11.34439 L 104.6302 11.34439 L 104.6302 9.9878834 L 85.028299 9.9878834 L 85.028299 9.4049732 L 82.476 9.4049732 L 82.476 9.9878834 L 76.805545 9.9878834 L 76.805545 0.35126228 L 75.307962 0.35126228 z M 46.328852 11.952105 L 56.484821 11.952105 L 56.484821 32.552398 L 56.560269 32.572551 L 46.328852 32.572551 L 46.328852 11.952105 z M 58.04855 11.952105 L 77.232909 11.952105 L 77.232909 21.590276 L 76.056753 21.590276 L 76.056753 23.67542 L 78.356355 23.67542 L 78.356355 11.952105 L 82.534911 11.952105 L 82.534911 13.136012 L 85.0376 13.136012 L 85.0376 11.952105 L 89.265249 11.952105 L 89.265249 18.862794 L 92.580293 18.862794 L 92.580293 11.952105 L 100.45113 11.952105 L 100.45113 20.511789 L 97.053405 20.511789 L 97.053405 22.078618 L 100.70176 22.078618 L 100.70176 32.572551 L 88.015713 32.572551 L 88.015713 29.943254 L 80.871963 30.692563 L 80.871963 32.572551 L 75.561176 32.572551 L 75.561176 30.849142 L 73.662067 30.849142 L 73.662067 32.572551 L 62.443631 32.572551 L 62.443631 30.83519 L 60.545039 30.83519 L 60.545039 32.572551 L 58.04855 32.572551 L 58.04855 11.952105 z M 47.147407 35.797161 L 56.751988 35.797161 L 56.751988 48.167465 L 56.751988 48.594829 L 55.73603 49.611305 L 47.147407 49.611305 L 47.147407 35.797161 z M 57.928661 35.797161 L 70.272093 35.797161 L 70.272093 43.064934 L 68.535765 43.064934 L 68.535765 42.544036 L 67.403018 42.544036 L 67.403018 43.635442 L 71.892666 43.635442 L 72.736026 43.635442 L 72.736026 35.797161 L 80.871963 35.797161 L 80.871963 40.584465 L 76.456729 40.584465 L 76.456729 42.039674 L 80.871963 42.039674 L 80.871963 46.855917 L 76.567316 46.855917 L 76.461897 50.901665 L 80.871963 50.901665 L 80.871963 55.740129 L 76.489802 55.740129 L 76.489802 59.080494 L 80.871963 59.080494 L 80.871963 62.045171 L 64.881208 62.045171 L 64.881208 58.981275 L 61.673135 58.981275 L 61.673135 62.045171 L 52.26389 62.045171 L 52.26389 59.295468 L 49.783422 59.295468 L 49.783422 62.045171 L 47.147407 62.045171 L 47.147407 50.89443 L 55.789773 50.89443 L 57.152998 49.530689 L 61.351191 49.530689 L 61.351191 48.274435 L 57.928661 48.274435 L 57.928661 35.797161 z M 88.015713 35.797161 L 103.93464 35.797161 L 103.93464 36.992953 L 105.46633 36.992953 L 105.46633 35.797161 L 110.47687 35.797161 L 110.47687 42.414328 L 101.19527 42.414328 L 101.19527 44.070558 L 99.539041 44.070558 L 99.539041 46.023927 L 97.527277 46.023927 L 97.527277 54.174334 L 98.972667 55.619723 L 108.09149 55.619723 L 108.09149 62.045171 L 96.532506 62.045171 L 96.532506 59.665471 L 94.646316 59.665471 L 94.646316 62.045171 L 88.015713 62.045171 L 88.015713 50.200416 L 92.411311 50.200416 L 92.411311 46.4115 L 88.015713 46.4115 L 88.015713 35.797161 z M 112.41784 35.797161 L 120.25302 35.797161 L 120.25302 41.80558 L 112.41784 41.80558 L 112.41784 35.797161 z M 121.50411 35.797161 L 127.59676 35.797161 L 127.59676 51.820989 L 124.40936 51.820989 L 124.40936 50.40092 L 124.40936 49.634559 L 123.23889 49.634559 L 123.23889 48.70645 L 121.50411 48.70645 L 121.50411 35.797161 z M 72.74016 40.414967 L 72.74016 41.890846 L 73.653799 41.890846 L 73.653799 40.414967 L 72.74016 40.414967 z M 4.6719633 41.15549 L 10.917577 41.15549 L 10.917577 62.045171 L 2.100544 62.045171 L 2.100544 46.533456 L 4.6719633 44.474667 L 4.6719633 41.15549 z M 12.515412 41.15549 L 43.733145 41.15549 L 43.733145 62.045171 L 32.948273 62.045171 L 32.948273 60.729489 L 29.021381 60.729489 L 29.021381 62.045171 L 12.515412 62.045171 L 12.515412 41.15549 z M 112.41784 43.298512 L 120.25302 43.298512 L 120.25302 49.190658 L 122.95673 49.190658 L 122.95673 50.159075 L 123.44094 50.159075 L 123.44094 51.820989 L 122.98102 51.820989 L 122.95932 52.546009 L 123.44094 52.546009 L 123.44094 54.478708 L 120.12125 54.478708 L 120.12125 62.924704 L 115.5515 62.924704 L 115.5515 64.345289 L 116.49925 64.345289 L 116.49925 68.783778 L 110.05519 68.783778 L 110.05519 64.945252 L 110.68771 64.945252 L 110.68771 62.045171 L 110.05519 62.045171 L 110.05519 56.026417 L 110.46344 56.026417 L 110.46344 54.888502 L 110.05519 54.888502 L 110.05519 54.465789 L 111.55226 54.465789 L 111.55226 43.897958 L 112.41732 43.897958 L 112.41784 43.298512 z M 102.09186 43.310914 L 110.47687 43.310914 L 110.47687 53.532512 L 108.09149 53.579538 L 108.09149 54.723137 L 99.343704 54.723137 L 98.423863 53.803297 L 98.423863 46.920513 L 100.43563 46.920513 L 100.43563 44.967144 L 102.09186 44.967144 L 102.09186 43.310914 z M 124.40936 52.546009 L 127.59676 52.546009 L 127.59676 52.79664 L 128.62977 52.79664 L 128.62977 68.770859 L 130.16715 68.770859 L 130.16715 69.671579 L 124.56232 69.671579 L 124.56232 69.370305 L 123.05595 69.370305 L 123.05595 69.671579 L 119.92333 69.671579 L 119.92333 68.783778 L 117.67023 68.783778 L 117.67023 64.345289 L 121.76611 64.345289 L 121.58834 62.924704 L 120.85815 62.924704 L 120.85815 54.73554 L 124.40884 54.73554 C 124.40884 54.73554 124.40919 53.275413 124.40936 52.546009 z M 12.512828 64.945252 L 20.564016 64.945252 L 20.564016 69.828675 L 19.535655 69.828675 L 19.535655 71.797547 L 20.564016 71.797547 L 20.564016 75.843295 L 12.512828 75.843295 L 12.512828 64.945252 z M 22.161852 64.945252 L 36.787316 64.945252 L 36.787316 75.843295 L 30.097801 75.843295 L 30.097801 74.543116 L 27.525865 74.543116 L 27.525865 75.843295 L 22.161852 75.843295 L 22.161852 70.498919 L 23.485802 70.498919 L 23.485802 68.530563 L 22.161852 68.530563 L 22.161852 64.945252 z M 39.500328 64.945252 L 45.15528 64.945252 L 45.15528 71.981515 L 39.500328 71.981515 L 39.500328 64.945252 z M 46.562946 64.945252 L 56.745271 64.945252 L 56.745271 76.147153 L 46.562946 76.147153 L 46.562946 64.945252 z M 57.813422 64.945252 L 73.899779 64.945252 C 73.917239 65.852255 74.300705 66.451079 74.751923 66.89087 C 75.210261 67.3376 75.718982 67.655078 76.058304 68.082529 L 76.080008 68.10785 L 78.502599 69.974403 C 78.266536 70.164535 78.064211 70.380345 77.896434 70.615707 C 77.29881 71.454079 77.107335 72.49621 77.107335 73.40055 C 77.107335 73.932549 77.004135 74.264784 76.864973 74.498674 C 76.72581 74.732564 76.544494 74.879747 76.333739 75.02009 C 76.122985 75.160432 75.882012 75.284272 75.673831 75.492412 C 75.46565 75.700552 75.312096 76.010797 75.312096 76.410702 L 75.312096 84.215394 L 74.778278 84.215394 L 74.778795 86.603879 L 80.871963 86.603879 L 80.871963 93.242233 L 60.898505 93.242233 L 60.898505 86.740304 L 64.068855 86.740304 L 64.068855 85.051519 L 60.898505 85.051519 L 60.898505 76.147153 L 57.813422 76.147153 L 57.813422 64.945252 z M 74.452717 64.945252 L 80.871963 64.945252 L 80.871963 69.178586 C 80.118429 69.200866 79.493459 69.373654 78.986807 69.650908 L 76.46448 67.708391 C 76.050632 67.200372 75.528092 66.878353 75.136396 66.496579 C 74.744881 66.114979 74.468478 65.70402 74.452717 64.945252 z M 88.015713 64.945252 L 97.524177 64.945252 L 97.524177 79.093743 L 92.015469 79.093743 L 92.015469 77.659205 L 88.015713 77.659205 L 88.015713 64.945252 z M 100.88108 64.945252 L 108.09149 64.945252 L 108.09149 79.093743 L 100.88108 79.093743 L 100.88108 71.03842 L 101.84691 71.03842 L 101.84691 68.228773 L 100.88108 68.228773 L 100.88108 64.945252 z M 80.871963 69.72894 L 80.871963 84.215394 L 75.862967 84.215394 L 75.862967 76.410702 C 75.862967 76.132241 75.936277 76.011293 76.064505 75.883086 C 76.192737 75.754878 76.400833 75.637325 76.63863 75.478976 C 76.876426 75.320625 77.142629 75.111311 77.339879 74.779794 C 77.53713 74.448279 77.658206 74.005039 77.658206 73.40055 C 77.658206 72.57558 77.840596 71.641504 78.343435 70.936101 C 78.825773 70.25946 79.589611 69.767995 80.871963 69.72894 z M 110.05571 70.086024 L 118.93889 70.086024 C 118.93944 73.088592 118.93798 76.091175 118.93889 79.093743 L 110.05519 79.093743 L 110.05519 77.005498 L 111.81478 77.005498 L 111.81478 73.260507 L 110.05519 73.260507 L 110.05571 70.086024 z M 120.04012 70.086024 L 123.05595 70.086024 L 123.05595 70.613123 L 124.56232 70.613123 L 124.56232 70.086024 L 130.16715 70.086024 L 130.16715 79.093743 L 120.04012 79.093743 L 120.04012 70.086024 z M 39.500328 73.672368 L 45.15528 73.672368 L 45.15528 80.573239 L 39.500328 80.573239 L 39.500328 73.672368 z M 46.562946 77.597193 L 59.238142 77.597193 L 59.238142 93.242233 L 52.098009 93.242233 L 52.098009 91.916216 L 50.287784 91.916216 L 50.287784 93.242233 L 46.562946 93.242233 L 46.562946 77.597193 z M 23.582437 78.626071 L 30.407343 78.626071 L 30.407343 79.881808 L 32.056338 79.881808 L 32.056338 78.626071 L 36.787316 78.626071 L 36.787316 93.242233 L 31.911644 93.242233 L 31.911644 92.152377 L 30.259032 92.152377 L 30.259032 93.242233 L 23.582437 93.242233 L 23.582437 78.626071 z M 88.015713 80.426995 L 88.6534 80.426995 C 88.6843 81.43334 88.973529 82.237906 89.253881 82.865606 C 89.550489 83.529703 89.808369 84.025947 89.808369 84.250534 C 89.808369 84.891033 89.617278 85.438926 89.409943 86.017868 C 89.20261 86.59681 88.978445 87.20733 88.978445 87.93403 C 88.978445 88.936712 89.371364 89.64346 89.72517 90.164902 L 88.015713 90.164902 L 88.015713 80.426995 z M 39.500328 82.264092 L 45.15528 82.264092 L 45.15528 91.297132 L 43.400349 91.297132 L 43.400349 89.47037 L 42.172517 89.47037 L 42.172517 91.297132 L 41.542581 91.297132 L 40.83203 90.063099 L 39.500328 90.063099 L 39.500328 82.264092 z M 39.500328 90.414499 L 40.628942 90.414499 L 41.34156 91.649049 L 45.15528 91.649049 L 45.15528 93.242233 L 39.500328 93.242233 L 39.500328 90.414499 z " /></g><g
     inkscape:groupmode="layer"
     id="layer6"
     inkscape:label="park"
     style="display:inline"
     transform="translate(0.00165327,-0.0019296)"><path
       id="path64"
       style="display:inline;fill:#474a4d;fill-opacity:1;stroke:none;stroke-width:0.354999;stroke-opacity:1"
       d="m 88.470266,4.5857631 v 5.3776331 h 15.008254 v -8.180939 h -4.996803 v 2.8033059 z m -42.49043,7.3366859 v 20.65352 l 10.08724,-0.0031 V 11.922449 Z M 13.239199,42.687496 V 62.02275 h 8.780859 l -10e-4,-19.335254 z m 74.764945,23.97063 v 11.013282 h 3.191537 V 66.703602 Z M 60.88642,78.486345 v 6.037357 h 2.560567 v -6.037357 z m 14.971179,0.974617 v 3.836459 h 5.019332 v -3.836459 z m 23.468855,0.934827 v 4.001823 h 7.408336 v -3.985287 z m 26.660386,3.474723 v 13.369727 h 5.49786 V 83.870512 Z m -65.10042,3.390491 v 5.124752 h 2.560567 v -5.124752 z m 14.981514,0.03772 v 3.682462 h 4.817794 v -3.682462 z m -62.434432,9.118823 v 8.314734 h 11.011731 v -8.314734 z m 76.488355,0.0155 v 8.289914 h 10.549753 v -8.289914 z m -31.045134,0.0067 v 6.453854 h 16.136483 v -6.453854 z"
       sodipodi:nodetypes="ccccccccccccccccccccccccccccccccccccccccccccccccccccccccccccccccccc" /></g><g
     inkscape:groupmode="layer"
     id="layer8"
     inkscape:label="cyPark"
     transform="translate(0.00165327,-0.0019296)"><path
       id="path58"
       style="display:inline;fill:#909398;fill-opacity:1;stroke:none;stroke-width:0.354999;stroke-opacity:1"
       d="m 112.53909,16.56506 v 9.723437 h 2.06705 v 6.300391 l 9.78959,0.01654 V 16.56506 Z M 4.648509,23.406503 V 40.475745 H 8.5883202 V 23.406503 Z m 18.177185,17.775659 v 20.843689 h 1.870687 v -6.086967 h 1.665531 V 41.182162 Z M 128.8213,43.232683 v 4.681368 h 2.17196 V 43.232683 Z M 0.33921128,49.720659 v 9.045443 H 4.7875186 V 49.720659 Z M 129.94268,51.80942 v 15.178919 h 1.06556 V 51.80942 Z" /></g><g
     inkscape:label="building"
     inkscape:groupmode="layer"
     id="layer1"
     style="display:inline"
     transform="translate(0.00165327,-0.0019296)"><rect
       style="display:inline;fill:#dceff3;fill-opacity:1;stroke:#000000;stroke-width:0.132292;stroke-dasharray:none;stroke-opacity:1"
       id="rect6"
       width="21.842602"
       height="6.8976359"
       x="24.643946"
       y="97.083275"
       inkscape:label="pool" /><path
       style="display:inline;fill:#c8d9cf;fill-opacity:1;stroke:#000000;stroke-width:0.132292;stroke-dasharray:none;stroke-opacity:1"
       d="M 0.33978148,0.34692837 H 38.042336 V 11.885242 h 5.390885 V 40.261804 H 8.6405132 V 23.328471 H 0.33978148 Z"
       id="path66"
       sodipodi:nodetypes="ccccccccc" /><path
       id="path67"
       style="display:inline;fill:#f4ea7a;fill-opacity:1;stroke:#000000;stroke-width:0.132292;stroke-dasharray:none;stroke-opacity:1"
       inkscape:label="f"
       d="m 125.44373,19.646009 v 10.54716 h 2.8298 V 19.716289 Z M 66.567727,38.293966 v 4.299479 h 3.274218 v -4.299479 z m -17.784961,0.859896 v 2.877344 h 4.820377 V 39.153862 Z M 5.2722435,41.716496 v 18.214909 l 1.0748698,0.954981 H 9.2864692 L 10.398545,59.774309 V 50.241041 H 8.4389753 V 49.265389 H 10.365472 V 41.716496 Z M 23.480434,66.219393 v 8.348845 h 11.258228 l 0.0021,-8.348845 z m -10.813293,1.774052 v 7.416602 h 6.854362 l 0.03307,-7.416602 z m -7.8253622,0.879533 v 6.321061 H 7.9113589 V 68.874012 Z M 112.88635,71.266631 v 1.781286 l -1.06608,0.05839 v 4.190441 h 2.40915 v 1.226282 h 3.83956 V 71.266626 Z M 12.510044,79.651648 v 4.564063 h 3.538802 v 11.377083 l 3.604948,-0.0062 V 79.651648 Z m -7.2822422,2.445329 v 7.70754 h 5.6415162 v -7.70599 z" /><path
       id="path9"
       style="display:inline;fill:#b19ff4;fill-opacity:1;stroke:#000000;stroke-width:0.132292;stroke-dasharray:none;stroke-opacity:1"
       inkscape:label="e"
       d="m 122.23875,70.555563 v 8.94364 h 3.28301 v -0.610815 h 3.283 l 0.002,-8.332825 z m -96.351744,9.322428 -5.17e-4,12.449369 h 9.57926 V 79.877991 Z" /><path
       id="path6"
       style="display:inline;fill:#b8de95;fill-opacity:1;stroke:#000000;stroke-width:0.132292;stroke-dasharray:none;stroke-opacity:1"
       inkscape:label="d"
       d="m 96.92453,65.17708 -4.914429,0.0026 v 16.174723 h 1.626774 v 0.766361 h -2.116149 v 4.272091 l 0.07183,-4.168738 v 5.388819 h 0.59893 v 2.189013 h 1.920296 v 1.816944 h 2.31252 v -1.693437 h 0.763778 v 1.548743 h 9.00256 v -5.18263 h -7.040926 v 1.590084 H 96.461509 V 82.172441 H 94.22547 v -0.818038 h 2.69906 z m -5.403804,21.215759 -0.02067,1.19941 0.02067,0.06201 z m 15.314834,-20.338293 -5.01778,0.0026 v 11.911418 h 5.01778 z m 1.97352,15.187703 v 5.321639 h 4.01113 l -0.007,-3.510897 h 0.69712 v -1.522388 h -0.67851 v -0.288354 z m 11.01742,0.09922 v 0.949813 h -2.127 v 8.672338 h -0.0703 v 0.929143 h 5.2529 v -0.867131 h 1.75545 v -1.878955 h -1.61075 v -6.938078 h -0.78445 v -0.86713 z" /><path
       id="path11"
       style="display:inline;fill:#ffa7b3;fill-opacity:1;stroke:#000000;stroke-width:0.132292;stroke-dasharray:none;stroke-opacity:1"
       inkscape:label="c"
       d="m 111.79133,44.358195 v 10.293429 h -1.34359 v 12.599748 l 5.61413,-0.0021 v -12.91239 h 7.00267 v -3.7915 h -6.25078 v -4.1429 h -1.19734 v -2.04432 z m 9.84023,10.454143 V 69.39491 c 0,0 5.1469,-0.06471 5.2126,0 0.0657,0.06472 0,-14.582572 0,-14.582572 z" /><path
       id="path32"
       style="display:inline;fill:#04bac6;fill-opacity:1;stroke:#000000;stroke-width:0.132292;stroke-dasharray:none;stroke-opacity:1"
       inkscape:label="b"
       d="M 74.842157,1.799553 59.903534,1.802133 V 9.4409471 H 74.842157 Z M 38.057322,2.4289719 V 8.2601401 H 48.38279 V 2.4289719 Z m 39.199675,2.2939169 v 4.6653483 h 10.54716 V 4.7228888 Z m 2.705261,8.4025882 v 13.336136 l 2.414323,-0.0036 v 1.401465 H 76.274628 V 15.242143 h -4.81211 V 28.008289 H 63.954966 V 14.101128 H 61.04455 v 1.008724 H 59.390904 V 30.85256 H 97.044419 V 13.803471 h -2.728515 v 14.05599 h -8.78086 v -1.41025 l 2.298568,0.0052 V 13.125477 Z m 26.028392,1.372526 v 17.179313 l 3.22461,0.0021 v -6.250781 h 1.17409 v -2.596224 h -1.15755 v -1.35599 h 1.17408 v -2.61276 h -1.20716 V 14.498003 Z M 73.643781,36.788115 v 19.45721 H 64.73373 V 39.617916 h -5.004862 v 8.442379 h 1.824178 v 8.395353 l -7.577316,0.03049 V 52.66725 h -5.051371 v 7.015592 H 76.496836 V 36.788115 Z m 18.803503,0.182934 V 59.642534 H 106.1064 V 56.682508 H 95.646055 l -0.0072,-6.283854 h 0.84336 v -5.142839 h -0.975686 v -3.108854 h 11.228261 l 0.42995,2.067057 h -2.31511 v 8.549349 h 4.49792 v -8.483203 h -1.63711 l -0.49609,-2.182812 h 2.00091 v -5.126303 z m 29.594066,0.235128 v 11.076327 h 1.68362 v 0.935343 h 2.4908 V 37.209278 Z m -95.286697,4.843632 v 13.475147 h 2.403988 v 0.95188 h -3.758427 v 4.258654 h 10.147701 v -4.258654 h -2.23759 v -0.95188 h 2.23759 V 42.049809 Z M 40.79514,67.670468 v 21.828125 h 3.208073 V 67.670468 Z m 8.326623,9.889318 v 14.312305 c 0,0.09922 8.805664,0 8.805664,0 v -3.712435 h -3.877799 l 0.04134,-10.59987 z" /><path
       id="rect9"
       style="display:inline;fill:#0065b7;fill-opacity:1;stroke:#000000;stroke-width:0.132292;stroke-dasharray:none;stroke-opacity:1"
       inkscape:label="a"
       d="m 59.755739,67.996029 v 6.862114 h 8.030001 v 3.124873 H 64.427806 V 92.612098 L 74.910887,92.46637 V 71.383419 h -9.023222 v -3.38739 z m 18.867066,29.30002 v 1.862934 h 2.271179 v -1.862934 z" /><rect
       style="fill:#909398;stroke:#000000;stroke-width:0.0515133;stroke-dasharray:none;stroke-opacity:1"
       id="rect2"
       width="5.4269748"
       height="2.7843473"
       x="105.86895"
       y="7.3443365" /><rect
       style="display:inline;fill:#909398;stroke:#000000;stroke-width:0.0633422;stroke-dasharray:none;stroke-opacity:1"
       id="rect2-3"
       width="3.6378036"
       height="6.2804308"
       x="126.39333"
       y="2.2854066" /><rect
       style="display:inline;fill:#909398;stroke:#000000;stroke-width:0.0731503;stroke-dasharray:none;stroke-opacity:1"
       id="rect2-6"
       width="6.0006504"
       height="5.0778146"
       x="50.745838"
       y="3.5212965" /></g><g
     inkscape:groupmode="layer"
     id="layer2"
     inkscape:label="waku"
     style="display:inline"
     transform="translate(0.00165327,-0.0019296)"><path
       id="rect71-3"
       style="fill:#ffffff;fill-opacity:0.695946;stroke:#000000;stroke-width:0.144965;stroke-dasharray:none;stroke-opacity:1"
       d="M 38.923419,1.5442714 V 7.3625209 H 47.81745 V 1.5442714 Z m 24.437785,1.065568 v 5.8182497 h 8.894031 V 2.6098394 Z m 14.783594,0.5953125 v 5.8182492 h 8.894031 V 3.2051519 Z m 2.494938,16.4563601 v 5.84202 h 6.536552 v -5.84202 z m 41.393864,3.648873 v 5.816182 h 9.10694 v -5.816182 z m -60.975098,0.891418 v 5.842021 h 6.536552 v -5.842021 z m 43.782868,2.027266 v 5.841504 h 6.53655 v -5.841504 z m -42.401557,9.739458 v 5.84202 h 6.536552 v -5.84202 z m 29.682943,0.859896 v 5.84202 h 6.536552 v -5.84202 z m 29.082464,0.05684 v 5.84202 h 6.53604 v -5.84202 z m -72.622959,3.217374 v 5.842021 h 6.536552 V 40.102641 Z M 4.8009544,50.736101 v 5.84202 h 6.5365516 v -5.84202 z m 54.6292236,2.380733 v 5.842021 h 6.536552 v -5.842021 z m -31.734497,1.224215 v 5.841504 h 6.536035 v -5.841504 z m 83.609369,2.06654 v 5.842021 h 6.53656 v -5.842021 z m 11.44323,3.770313 v 5.84202 h 6.53655 v -5.84202 z m -81.818782,5.766573 v 5.84202 h 6.536036 v -5.84202 z M 25.920079,67.41932 v 5.842021 h 6.536552 V 67.41932 Z M 2.0424665,68.595992 v 5.842021 h 6.5365519 v -5.842021 z m 99.3407135,0.379306 v 5.84202 h 6.53655 v -5.84202 z m -88.418383,0.395324 v 5.842021 h 6.536035 v -5.842021 z m 78.231917,0.266134 v 5.842021 h 6.536552 V 69.636756 Z M 122.4067,71.86401 v 5.842021 h 6.53655 V 71.86401 Z m -10.16475,0.02584 v 5.842021 h 6.53655 V 71.88985 Z m -99.412028,8.65942 v 5.842021 h 6.536035 V 80.54927 Z m -8.0429202,2.630847 v 5.842021 H 11.323554 V 83.180115 Z M 109.58526,83.395089 v 5.842021 h 6.53655 v -5.842021 z m -60.589587,0.859896 v 5.842021 h 6.536552 v -5.842021 z m -21.665861,0.695048 v 5.842021 h 6.536552 v -5.842021 z m 39.194507,0.131775 v 5.842021 h 6.536551 v -5.842021 z m 32.411455,0.760677 v 5.842021 h 6.536556 v -5.842021 z m -16.855816,9.390641 v 5.842004 h 6.536035 v -5.842004 z" /></g><g
     inkscape:groupmode="layer"
     id="layer5"
     inkscape:label="text"
     style="display:inline"
     transform="translate(0.00165327,-0.0019296)"><text
       xml:space="preserve"
       style="font-size:5.64444px;font-family:HGPSoeiKakugothicUB;-inkscape-font-specification:HGPSoeiKakugothicUB;fill:#04bac6;fill-opacity:1;stroke:none;stroke-width:0.354999;stroke-opacity:1"
       x="81.017754"
       y="24.964365"
       id="text68-5"><tspan
         sodipodi:role="line"
         id="tspan68-1"
         style="font-style:normal;font-variant:normal;font-weight:normal;font-stretch:normal;font-size:5.64444px;font-family:'MS Gothic';-inkscape-font-specification:'MS Gothic';fill:#000000;fill-opacity:1;stroke-width:0.355"
         x="81.017754"
         y="24.964365">B0</tspan></text><text
       xml:space="preserve"
       style="font-size:5.64444px;font-family:HGPSoeiKakugothicUB;-inkscape-font-specification:HGPSoeiKakugothicUB;fill:#04bac6;fill-opacity:1;stroke:none;stroke-width:0.354999;stroke-opacity:1"
       x="28.254217"
       y="59.454418"
       id="text68-5-4"><tspan
         sodipodi:role="line"
         id="tspan68-1-2"
         style="font-style:normal;font-variant:normal;font-weight:normal;font-stretch:normal;font-size:5.64444px;font-family:'MS Gothic';-inkscape-font-specification:'MS Gothic';fill:#000000;fill-opacity:1;stroke-width:0.355"
         x="28.254217"
         y="59.454418">B5</tspan></text><text
       xml:space="preserve"
       style="font-size:5.64444px;font-family:HGPSoeiKakugothicUB;-inkscape-font-specification:HGPSoeiKakugothicUB;fill:#04bac6;fill-opacity:1;stroke:none;stroke-width:0.354999;stroke-opacity:1"
       x="59.852425"
       y="58.094383"
       id="text68-5-8"><tspan
         sodipodi:role="line"
         id="tspan68-1-5"
         style="font-style:normal;font-variant:normal;font-weight:normal;font-stretch:normal;font-size:5.64444px;font-family:'MS Gothic';-inkscape-font-specification:'MS Gothic';fill:#000000;fill-opacity:1;stroke-width:0.355"
         x="59.852425"
         y="58.094383">B2</tspan></text><text
       xml:space="preserve"
       style="font-size:5.64444px;font-family:HGPSoeiKakugothicUB;-inkscape-font-specification:HGPSoeiKakugothicUB;fill:#04bac6;fill-opacity:1;stroke:none;stroke-width:0.354999;stroke-opacity:1"
       x="105.51656"
       y="31.369564"
       id="text68-5-3"><tspan
         sodipodi:role="line"
         id="tspan68-1-3"
         style="font-style:normal;font-variant:normal;font-weight:normal;font-stretch:normal;font-size:5.64444px;font-family:'MS Gothic';-inkscape-font-specification:'MS Gothic';fill:#000000;fill-opacity:1;stroke-width:0.355"
         x="105.51656"
         y="31.369564">B4</tspan></text><text
       xml:space="preserve"
       style="font-size:5.64444px;font-family:HGPSoeiKakugothicUB;-inkscape-font-specification:HGPSoeiKakugothicUB;fill:#04bac6;fill-opacity:1;stroke:none;stroke-width:0.354999;stroke-opacity:1"
       x="67.440628"
       y="90.168335"
       id="text68-5-0"><tspan
         sodipodi:role="line"
         id="tspan68-1-0"
         style="font-style:normal;font-variant:normal;font-weight:normal;font-stretch:normal;font-size:5.64444px;font-family:'MS Gothic';-inkscape-font-specification:'MS Gothic';fill:#000000;fill-opacity:1;stroke-width:0.355"
         x="67.440628"
         y="90.168335">A1</tspan></text><text
       xml:space="preserve"
       style="font-size:5.64444px;font-family:HGPSoeiKakugothicUB;-inkscape-font-specification:HGPSoeiKakugothicUB;fill:#04bac6;fill-opacity:1;stroke:none;stroke-width:0.354999;stroke-opacity:1"
       x="82.393112"
       y="100.20647"
       id="text68-5-0-0"><tspan
         sodipodi:role="line"
         id="tspan68-1-0-57"
         style="font-style:normal;font-variant:normal;font-weight:normal;font-stretch:normal;font-size:5.64444px;font-family:'MS Gothic';-inkscape-font-specification:'MS Gothic';fill:#000000;fill-opacity:1;stroke-width:0.355"
         x="82.393112"
         y="100.20647">A2</tspan></text><text
       xml:space="preserve"
       style="font-size:5.64444px;font-family:HGPSoeiKakugothicUB;-inkscape-font-specification:HGPSoeiKakugothicUB;fill:#04bac6;fill-opacity:1;stroke:none;stroke-width:0.354999;stroke-opacity:1"
       x="27.955097"
       y="90.080635"
       id="text68-5-0-1"><tspan
         sodipodi:role="line"
         id="tspan68-1-0-6"
         style="font-style:normal;font-variant:normal;font-weight:normal;font-stretch:normal;font-size:5.64444px;font-family:'MS Gothic';-inkscape-font-specification:'MS Gothic';fill:#000000;fill-opacity:1;stroke-width:0.355"
         x="27.955097"
         y="90.080635">E1</tspan></text><text
       xml:space="preserve"
       style="font-size:5.64444px;font-family:HGPSoeiKakugothicUB;-inkscape-font-specification:HGPSoeiKakugothicUB;fill:#04bac6;fill-opacity:1;stroke:none;stroke-width:0.354999;stroke-opacity:1"
       x="49.634388"
       y="89.353035"
       id="text68-5-0-4"><tspan
         sodipodi:role="line"
         id="tspan68-1-0-2"
         style="font-style:normal;font-variant:normal;font-weight:normal;font-stretch:normal;font-size:5.64444px;font-family:'MS Gothic';-inkscape-font-specification:'MS Gothic';fill:#000000;fill-opacity:1;stroke-width:0.355"
         x="49.634388"
         y="89.353035">B7</tspan></text><text
       xml:space="preserve"
       style="font-size:5.64444px;font-family:HGPSoeiKakugothicUB;-inkscape-font-specification:HGPSoeiKakugothicUB;fill:#04bac6;fill-opacity:1;stroke:none;stroke-width:0.354999;stroke-opacity:1"
       x="121.75928"
       y="42.21825"
       id="text68-5-0-9"><tspan
         sodipodi:role="line"
         id="tspan68-1-0-5"
         style="font-style:normal;font-variant:normal;font-weight:normal;font-stretch:normal;font-size:5.64444px;font-family:'MS Gothic';-inkscape-font-specification:'MS Gothic';fill:#000000;fill-opacity:1;stroke-width:0.355"
         x="121.75928"
         y="42.21825">B6</tspan></text><text
       xml:space="preserve"
       style="font-size:5.64444px;font-family:HGPSoeiKakugothicUB;-inkscape-font-specification:HGPSoeiKakugothicUB;fill:#04bac6;fill-opacity:1;stroke:none;stroke-width:0.354999;stroke-opacity:1"
       x="41.378681"
       y="70.948044"
       id="text68-5-0-5"><tspan
         sodipodi:role="line"
         id="tspan68-1-0-3"
         style="font-style:normal;font-variant:normal;font-weight:normal;font-stretch:normal;font-size:5.64444px;font-family:'MS Gothic';-inkscape-font-specification:'MS Gothic';fill:#000000;fill-opacity:1;stroke-width:0.355"
         x="41.378681"
         y="70.948044">B8</tspan></text><text
       xml:space="preserve"
       style="font-size:5.64444px;font-family:HGPSoeiKakugothicUB;-inkscape-font-specification:HGPSoeiKakugothicUB;fill:#04bac6;fill-opacity:1;stroke:none;stroke-width:0.354999;stroke-opacity:1"
       x="123.42043"
       y="65.389374"
       id="text68-5-2"><tspan
         sodipodi:role="line"
         id="tspan68-1-34"
         style="font-style:normal;font-variant:normal;font-weight:normal;font-stretch:normal;font-size:5.64444px;font-family:'MS Gothic';-inkscape-font-specification:'MS Gothic';fill:#000000;fill-opacity:1;stroke-width:0.355"
         x="123.42043"
         y="65.389374">C1</tspan></text><text
       xml:space="preserve"
       style="font-size:5.64444px;font-family:HGPSoeiKakugothicUB;-inkscape-font-specification:HGPSoeiKakugothicUB;fill:#04bac6;fill-opacity:1;stroke:none;stroke-width:0.354999;stroke-opacity:1"
       x="91.800308"
       y="74.701157"
       id="text68-5-2-8"><tspan
         sodipodi:role="line"
         id="tspan68-1-34-7"
         style="font-style:normal;font-variant:normal;font-weight:normal;font-stretch:normal;font-size:5.64444px;font-family:'MS Gothic';-inkscape-font-specification:'MS Gothic';fill:#000000;fill-opacity:1;stroke-width:0.355"
         x="91.800308"
         y="74.701157">D1</tspan></text><text
       xml:space="preserve"
       style="font-size:5.64444px;font-family:HGPSoeiKakugothicUB;-inkscape-font-specification:HGPSoeiKakugothicUB;fill:#04bac6;fill-opacity:1;stroke:none;stroke-width:0.354999;stroke-opacity:1"
       x="99.45874"
       y="91.039749"
       id="text68-5-2-8-9"><tspan
         sodipodi:role="line"
         id="tspan68-1-34-7-4"
         style="font-style:normal;font-variant:normal;font-weight:normal;font-stretch:normal;font-size:5.64444px;font-family:'MS Gothic';-inkscape-font-specification:'MS Gothic';fill:#000000;fill-opacity:1;stroke-width:0.355"
         x="99.45874"
         y="91.039749">D3</tspan></text><text
       xml:space="preserve"
       style="font-size:5.64444px;font-family:HGPSoeiKakugothicUB;-inkscape-font-specification:HGPSoeiKakugothicUB;fill:#04bac6;fill-opacity:1;stroke:none;stroke-width:0.354999;stroke-opacity:1"
       x="110.17437"
       y="88.393913"
       id="text68-5-2-8-3"><tspan
         sodipodi:role="line"
         id="tspan68-1-34-7-9"
         style="font-style:normal;font-variant:normal;font-weight:normal;font-stretch:normal;font-size:5.64444px;font-family:'MS Gothic';-inkscape-font-specification:'MS Gothic';fill:#000000;fill-opacity:1;stroke-width:0.355"
         x="110.17437"
         y="88.393913">D4</tspan></text><text
       xml:space="preserve"
       style="font-size:5.64444px;font-family:HGPSoeiKakugothicUB;-inkscape-font-specification:HGPSoeiKakugothicUB;fill:#04bac6;fill-opacity:1;stroke:none;stroke-width:0.354999;stroke-opacity:1"
       x="122.90744"
       y="76.983757"
       id="text68-5-2-8-3-1"><tspan
         sodipodi:role="line"
         id="tspan68-1-34-7-9-8"
         style="font-style:normal;font-variant:normal;font-weight:normal;font-stretch:normal;font-size:5.64444px;font-family:'MS Gothic';-inkscape-font-specification:'MS Gothic';fill:#000000;fill-opacity:1;stroke-width:0.355"
         x="122.90744"
         y="76.983757">E2</tspan></text><text
       xml:space="preserve"
       style="font-size:5.64444px;font-family:HGPSoeiKakugothicUB;-inkscape-font-specification:HGPSoeiKakugothicUB;fill:#04bac6;fill-opacity:1;stroke:none;stroke-width:0.855;stroke-dasharray:none;stroke-opacity:1"
       x="5.6733356"
       y="55.815922"
       id="text68-5-2-8-3-2"><tspan
         sodipodi:role="line"
         id="tspan68-1-34-7-9-2"
         style="font-style:normal;font-variant:normal;font-weight:normal;font-stretch:normal;font-size:5.64444px;font-family:'MS Gothic';-inkscape-font-specification:'MS Gothic';fill:#000000;fill-opacity:1;stroke-width:0.855;stroke-dasharray:none"
         x="5.6733356"
         y="55.815922">F1</tspan></text><text
       xml:space="preserve"
       style="font-size:5.64444px;font-family:HGPSoeiKakugothicUB;-inkscape-font-specification:HGPSoeiKakugothicUB;fill:#04bac6;fill-opacity:1;stroke:none;stroke-width:0.354999;stroke-opacity:1"
       x="2.3346107"
       y="73.643394"
       id="text68-5-2-8-3-2-1"><tspan
         sodipodi:role="line"
         id="tspan68-1-34-7-9-2-3"
         style="font-style:normal;font-variant:normal;font-weight:normal;font-stretch:normal;font-size:5.64444px;font-family:'MS Gothic';-inkscape-font-specification:'MS Gothic';fill:#000000;fill-opacity:1;stroke-width:0.355"
         x="2.3346107"
         y="73.643394">F2</tspan></text><text
       xml:space="preserve"
       style="font-size:5.64444px;font-family:HGPSoeiKakugothicUB;-inkscape-font-specification:HGPSoeiKakugothicUB;fill:#04bac6;fill-opacity:1;stroke:none;stroke-width:0.354999;stroke-opacity:1"
       x="5.0465899"
       y="88.195473"
       id="text68-5-2-8-3-2-6"><tspan
         sodipodi:role="line"
         id="tspan68-1-34-7-9-2-31"
         style="font-style:normal;font-variant:normal;font-weight:normal;font-stretch:normal;font-size:5.64444px;font-family:'MS Gothic';-inkscape-font-specification:'MS Gothic';fill:#000000;fill-opacity:1;stroke-width:0.355"
         x="5.0465899"
         y="88.195473">F3</tspan></text><text
       xml:space="preserve"
       style="font-size:5.64444px;font-family:HGPSoeiKakugothicUB;-inkscape-font-specification:HGPSoeiKakugothicUB;fill:#04bac6;fill-opacity:1;stroke:none;stroke-width:0.354999;stroke-opacity:1"
       x="13.314819"
       y="85.880371"
       id="text68-5-2-8-3-2-3"><tspan
         sodipodi:role="line"
         id="tspan68-1-34-7-9-2-4"
         style="font-style:normal;font-variant:normal;font-weight:normal;font-stretch:normal;font-size:5.64444px;font-family:'MS Gothic';-inkscape-font-specification:'MS Gothic';fill:#000000;fill-opacity:1;stroke-width:0.355"
         x="13.314819"
         y="85.880371">F5</tspan></text><text
       xml:space="preserve"
       style="font-size:5.64444px;font-family:HGPSoeiKakugothicUB;-inkscape-font-specification:HGPSoeiKakugothicUB;fill:#04bac6;fill-opacity:1;stroke:none;stroke-width:0.354999;stroke-opacity:1"
       x="13.64555"
       y="74.767868"
       id="text68-5-2-8-3-2-17"><tspan
         sodipodi:role="line"
         id="tspan68-1-34-7-9-2-0"
         style="font-style:normal;font-variant:normal;font-weight:normal;font-stretch:normal;font-size:5.64444px;font-family:'MS Gothic';-inkscape-font-specification:'MS Gothic';fill:#000000;fill-opacity:1;stroke-width:0.355"
         x="13.64555"
         y="74.767868">F4</tspan></text><text
       xml:space="preserve"
       style="font-size:5.64444px;font-family:HGPSoeiKakugothicUB;-inkscape-font-specification:HGPSoeiKakugothicUB;fill:#04bac6;fill-opacity:1;stroke:none;stroke-width:0.354999;stroke-opacity:1"
       x="26.410318"
       y="72.588379"
       id="text68-5-2-8-3-2-8"><tspan
         sodipodi:role="line"
         id="tspan68-1-34-7-9-2-5"
         style="font-style:normal;font-variant:normal;font-weight:normal;font-stretch:normal;font-size:5.64444px;font-family:'MS Gothic';-inkscape-font-specification:'MS Gothic';fill:#000000;fill-opacity:1;stroke-width:0.355"
         x="26.410318"
         y="72.588379">F6</tspan></text><text
       xml:space="preserve"
       style="font-size:5.64444px;font-family:HGPSoeiKakugothicUB;-inkscape-font-specification:HGPSoeiKakugothicUB;fill:#04bac6;fill-opacity:1;stroke:none;stroke-width:0.354999;stroke-opacity:1"
       x="49.033569"
       y="45.200687"
       id="text68-5-2-8-3-2-34"><tspan
         sodipodi:role="line"
         id="tspan68-1-34-7-9-2-7"
         style="font-style:normal;font-variant:normal;font-weight:normal;font-stretch:normal;font-size:5.64444px;font-family:'MS Gothic';-inkscape-font-specification:'MS Gothic';fill:#000000;fill-opacity:1;stroke-width:0.355"
         x="49.033569"
         y="45.200687">F7</tspan></text><text
       xml:space="preserve"
       style="font-size:5.64444px;font-family:HGPSoeiKakugothicUB;-inkscape-font-specification:HGPSoeiKakugothicUB;fill:#04bac6;fill-opacity:1;stroke:none;stroke-width:0.354999;stroke-opacity:1"
       x="63.05648"
       y="41.165794"
       id="text68-5-2-8-3-2-4"><tspan
         sodipodi:role="line"
         id="tspan68-1-34-7-9-2-9"
         style="font-style:normal;font-variant:normal;font-weight:normal;font-stretch:normal;font-size:5.64444px;font-family:'MS Gothic';-inkscape-font-specification:'MS Gothic';fill:#000000;fill-opacity:1;stroke-width:0.355"
         x="63.05648"
         y="41.165794">F8</tspan></text><text
       xml:space="preserve"
       style="font-size:5.64444px;font-family:HGPSoeiKakugothicUB;-inkscape-font-specification:HGPSoeiKakugothicUB;fill:#04bac6;fill-opacity:1;stroke:none;stroke-width:0.354999;stroke-opacity:1"
       x="122.65387"
       y="28.465796"
       id="text68-5-2-8-3-2-5"><tspan
         sodipodi:role="line"
         id="tspan68-1-34-7-9-2-92"
         style="font-style:normal;font-variant:normal;font-weight:normal;font-stretch:normal;font-size:5.64444px;font-family:'MS Gothic';-inkscape-font-specification:'MS Gothic';fill:#000000;fill-opacity:1;stroke-width:0.355"
         x="122.65387"
         y="28.465796">F10</tspan></text><text
       xml:space="preserve"
       style="font-size:5.64444px;font-family:HGPSoeiKakugothicUB;-inkscape-font-specification:HGPSoeiKakugothicUB;fill:#04bac6;fill-opacity:1;stroke:none;stroke-width:0.354999;stroke-opacity:1"
       x="112.62846"
       y="76.987099"
       id="text68-5-2-8-3-2-19"><tspan
         sodipodi:role="line"
         id="tspan68-1-34-7-9-2-1"
         style="font-style:normal;font-variant:normal;font-weight:normal;font-stretch:normal;font-size:5.64444px;font-family:'MS Gothic';-inkscape-font-specification:'MS Gothic';fill:#000000;fill-opacity:1;stroke-width:0.355"
         x="112.62846"
         y="76.987099">F9</tspan></text><text
       xml:space="preserve"
       style="font-size:5.64444px;font-family:HGPSoeiKakugothicUB;-inkscape-font-specification:HGPSoeiKakugothicUB;fill:#04bac6;fill-opacity:1;stroke:none;stroke-width:0.354999;stroke-opacity:1"
       x="102.17459"
       y="74.044968"
       id="text68-5-2-3"><tspan
         sodipodi:role="line"
         id="tspan68-1-34-2"
         style="font-style:normal;font-variant:normal;font-weight:normal;font-stretch:normal;font-size:5.64444px;font-family:'MS Gothic';-inkscape-font-specification:'MS Gothic';fill:#000000;fill-opacity:1;stroke-width:0.355"
         x="102.17459"
         y="74.044968">D2</tspan></text><text
       xml:space="preserve"
       style="font-size:5.64444px;font-family:HGPSoeiKakugothicUB;-inkscape-font-specification:HGPSoeiKakugothicUB;fill:#04bac6;fill-opacity:1;stroke:none;stroke-width:0.354999;stroke-opacity:1"
       x="111.49192"
       y="61.476387"
       id="text68-5-35"><tspan
         sodipodi:role="line"
         id="tspan68-1-8"
         style="font-style:normal;font-variant:normal;font-weight:normal;font-stretch:normal;font-size:5.64444px;font-family:'MS Gothic';-inkscape-font-specification:'MS Gothic';fill:#000000;fill-opacity:1;stroke-width:0.355"
         x="111.49192"
         y="61.476387">C2</tspan></text><text
       xml:space="preserve"
       style="font-size:5.64444px;font-family:HGPSoeiKakugothicUB;-inkscape-font-specification:HGPSoeiKakugothicUB;fill:#04bac6;fill-opacity:1;stroke:none;stroke-width:0.354999;stroke-opacity:1"
       x="92.694023"
       y="41.87001"
       id="text68-5-38"><tspan
         sodipodi:role="line"
         id="tspan68-1-1"
         style="font-style:normal;font-variant:normal;font-weight:normal;font-stretch:normal;font-size:5.64444px;font-family:'MS Gothic';-inkscape-font-specification:'MS Gothic';fill:#000000;fill-opacity:1;stroke-width:0.355"
         x="92.694023"
         y="41.87001">B3</tspan></text><text
       xml:space="preserve"
       style="font-size:5.64444px;font-family:HGPSoeiKakugothicUB;-inkscape-font-specification:HGPSoeiKakugothicUB;fill:#04bac6;fill-opacity:1;stroke:none;stroke-width:0.354999;stroke-opacity:1"
       x="62.020752"
       y="29.281183"
       id="text68"><tspan
         sodipodi:role="line"
         id="tspan68"
         style="font-style:normal;font-variant:normal;font-weight:normal;font-stretch:normal;font-size:5.64444px;font-family:'MS Gothic';-inkscape-font-specification:'MS Gothic';fill:#000000;fill-opacity:1;stroke-width:0.355"
         x="62.020752"
         y="29.281183">B1</tspan></text><text
       xml:space="preserve"
       style="font-size:5.64444px;font-family:HGPSoeiKakugothicUB;-inkscape-font-specification:HGPSoeiKakugothicUB;fill:#04bac6;fill-opacity:1;stroke:none;stroke-width:0.354999;stroke-opacity:1"
       x="40.301666"
       y="6.7104626"
       id="text68-56"><tspan
         sodipodi:role="line"
         id="tspan68-7"
         style="font-style:normal;font-variant:normal;font-weight:normal;font-stretch:normal;font-size:5.64444px;font-family:'MS Gothic';-inkscape-font-specification:'MS Gothic';fill:#000000;fill-opacity:1;stroke-width:0.355"
         x="40.301666"
         y="6.7104626">B9</tspan></text><text
       xml:space="preserve"
       style="font-size:5.64444px;font-family:HGPSoeiKakugothicUB;-inkscape-font-specification:HGPSoeiKakugothicUB;fill:#04bac6;fill-opacity:1;stroke:none;stroke-width:0.354999;stroke-opacity:1"
       x="63.54155"
       y="7.8944407"
       id="text68-6"><tspan
         sodipodi:role="line"
         id="tspan68-77"
         style="font-style:normal;font-variant:normal;font-weight:normal;font-stretch:normal;font-size:5.64444px;font-family:'MS Gothic';-inkscape-font-specification:'MS Gothic';fill:#000000;fill-opacity:1;stroke-width:0.355"
         x="63.54155"
         y="7.8944407">B10</tspan></text><text
       xml:space="preserve"
       style="font-size:5.64444px;font-family:HGPSoeiKakugothicUB;-inkscape-font-specification:HGPSoeiKakugothicUB;fill:#04bac6;fill-opacity:1;stroke:none;stroke-width:0.354999;stroke-opacity:1"
       x="78.391289"
       y="8.4566793"
       id="text68-3"><tspan
         sodipodi:role="line"
         id="tspan68-4"
         style="font-style:normal;font-variant:normal;font-weight:normal;font-stretch:normal;font-size:5.64444px;font-family:'MS Gothic';-inkscape-font-specification:'MS Gothic';fill:#000000;fill-opacity:1;stroke-width:0.355"
         x="78.391289"
         y="8.4566793">B11</tspan></text></g><g
     inkscape:groupmode="layer"
     id="layer9"
     inkscape:label="arrows"
     style="display:inline"
     transform="translate(0.00165327,-0.0019296)"><path
       id="path15"
       style="fill:none;fill-opacity:1;stroke:#ffffff;stroke-width:0.438;stroke-dasharray:none;stroke-opacity:1"
       d="m 80.612864,22.164201 c -2.077495,0 -3.945504,1.246214 -5.777425,2.447396 -1.828534,1.198963 -3.622067,2.353216 -5.481836,2.357479 v -0.645439 l -1.695504,0.955498 1.695504,0.978751 v -0.736389 c 2.083479,-0.0041 3.95556,-1.247547 5.78466,-2.446879 1.832128,-1.201318 3.622503,-2.357479 5.474601,-2.357479 z m 24.316356,4.777486 c -6.059846,0 -13.009806,0.56717 -19.236046,1.666049 -6.226239,1.098879 -11.722087,2.715566 -14.908134,4.878772 -2.193202,1.489101 -4.534121,3.168261 -6.907072,4.88859 0.181601,-2.847793 0.336414,-5.603947 0.336414,-8.283215 h -0.552421 c 0,2.799629 -0.171838,5.696884 -0.365869,8.705412 -4.164687,3.02649 -8.442452,6.19671 -12.425598,8.983947 -3.222838,2.255207 -6.243805,4.246564 -8.818067,5.668388 -2.558287,1.413002 -4.689182,2.248945 -6.068363,2.259294 v -0.711068 l -1.695504,0.955497 1.695504,0.979269 v -0.67076 c 1.590665,-0.0097 3.74515,-0.897011 6.336047,-2.328024 2.605207,-1.438915 5.636659,-3.438827 8.867159,-5.699393 3.873532,-2.710534 8.017823,-5.776781 12.062313,-8.719365 -0.243918,3.751608 -0.505131,7.683363 -0.505912,11.861292 h -0.788583 l 0.956014,1.695503 0.978752,-1.695503 h -0.593245 c 8.17e-4,-4.324642 0.283517,-8.392904 0.535367,-12.284005 2.499199,-1.814429 4.963814,-3.585829 7.263123,-5.146973 3.045784,-2.067974 8.50476,-3.700697 14.693677,-4.792989 6.188917,-1.092292 13.115168,-1.658296 19.140444,-1.658296 z m 3.27525,5.11235 -0.97927,1.695504 h 0.69143 c -0.0272,1.591281 -1.29738,3.026149 -3.10265,4.073136 -1.825,1.058426 -4.16559,1.694987 -6.113331,1.694987 v 0.552938 c 2.066481,0 4.472751,-0.65699 6.390831,-1.769401 1.90043,-1.102175 3.35102,-2.675079 3.37757,-4.55166 h 0.69091 z m 11.30163,6.637838 v 0.704866 c -8.44306,0.02285 -16.85079,5.221358 -25.221202,10.562663 -8.388857,5.35308 -16.744637,10.851287 -24.951449,11.570353 -6.359846,0.557239 -13.23149,-0.40267 -19.456693,-1.507918 C 43.651552,58.916592 38.08497,57.66436 34.255487,57.66436 v 0.552421 c 3.707508,0 9.28542,1.239834 15.525151,2.34766 6.239729,1.107827 13.15271,2.080738 19.601904,1.51567 8.41726,-0.737505 16.815067,-6.306212 25.198979,-11.656136 8.364999,-5.337846 16.709059,-10.451227 24.924579,-10.474296 v 0.676961 l 1.69551,-0.955497 z m -29.110887,0.04289 v 0.769979 c -2.031582,0.0058 -3.988512,1.078095 -5.92677,2.638082 -1.943525,1.564225 -3.879066,3.631842 -5.857524,5.691125 -3.956917,4.118568 -8.082802,8.158675 -12.589929,8.158675 v 0.552421 c 4.832533,0 9.025069,-4.202976 12.988355,-8.328173 1.981644,-2.062598 3.907309,-4.117432 5.804813,-5.644617 1.891832,-1.522621 3.744817,-2.507149 5.581055,-2.513025 v 0.610299 l 1.695504,-0.955498 z m 33.938507,4.07417 c 0,4.009988 -2.21687,8.80102 -6.06475,13.710791 -3.84789,4.909772 -9.3151,9.938457 -15.76131,14.453381 C 89.616629,80.001965 72.811365,86.977315 57.231346,86.978849 V 86.29672 l -1.695504,0.955497 1.695504,0.978752 V 87.53127 c 15.744766,-0.0015 32.628424,-7.02551 45.594634,-16.107027 6.48381,-4.541253 11.98697,-9.597299 15.87862,-14.562936 3.89167,-4.965637 6.18154,-9.840294 6.18154,-14.052372 z m -80.457115,28.954306 -0.978751,1.695504 h 0.714685 c -0.0033,3.024509 -0.237381,6.508313 0.283703,9.287805 0.262355,1.399412 0.717738,2.630078 1.523422,3.523299 0.805682,0.893222 1.96658,1.423687 3.527433,1.423686 v -0.554488 c -1.439292,0 -2.412753,-0.458761 -3.117639,-1.240235 -0.704888,-0.781474 -1.138947,-1.911666 -1.390613,-3.254065 -0.49988,-2.666381 -0.274931,-6.133696 -0.271818,-9.186002 h 0.665592 z" /><path
       id="path15-6"
       style="fill:#000000;fill-opacity:1;stroke:none;stroke-width:0.137781;stroke-dasharray:none"
       d="m 80.604596,22.154383 c -2.077495,0 -3.945504,1.246214 -5.777425,2.447396 -1.828534,1.198963 -3.622067,2.353216 -5.481836,2.357479 v -0.645439 l -1.695504,0.955498 1.695504,0.978751 v -0.736389 c 2.083479,-0.0041 3.95556,-1.247547 5.78466,-2.446879 1.832128,-1.201318 3.622503,-2.357479 5.474601,-2.357479 z m 24.316364,4.777486 c -6.059846,0 -13.009814,0.56717 -19.236054,1.666049 -6.226239,1.098879 -11.722087,2.715566 -14.908134,4.878772 -2.193202,1.489101 -4.534121,3.168261 -6.907072,4.88859 0.181601,-2.847793 0.336414,-5.603947 0.336414,-8.283215 h -0.552421 c 0,2.799629 -0.171838,5.696884 -0.365869,8.705412 -4.164687,3.02649 -8.442452,6.19671 -12.425598,8.983947 -3.222838,2.255207 -6.243805,4.246564 -8.818067,5.668388 -2.558287,1.413002 -4.689182,2.248945 -6.068363,2.259294 v -0.711068 l -1.695504,0.955497 1.695504,0.979269 v -0.67076 c 1.590665,-0.0097 3.74515,-0.897011 6.336047,-2.328024 2.605207,-1.438915 5.636659,-3.438827 8.867159,-5.699393 3.873532,-2.710534 8.017823,-5.776781 12.062313,-8.719365 -0.243918,3.751608 -0.505131,7.683363 -0.505912,11.861292 H 61.94682 l 0.956014,1.695503 0.978752,-1.695503 h -0.593245 c 8.17e-4,-4.324642 0.283517,-8.392904 0.535367,-12.284005 2.499199,-1.814429 4.963814,-3.585829 7.263123,-5.146973 3.045784,-2.067974 8.50476,-3.700697 14.693677,-4.792989 6.188917,-1.092292 13.115176,-1.658296 19.140452,-1.658296 z m 3.27525,5.11235 -0.97927,1.695504 h 0.69143 c -0.0272,1.591281 -1.29738,3.026149 -3.10265,4.073136 -1.825,1.058426 -4.16559,1.694987 -6.113339,1.694987 v 0.552938 c 2.066489,0 4.472759,-0.65699 6.390839,-1.769401 1.90043,-1.102175 3.35102,-2.675079 3.37757,-4.55166 h 0.69091 z m 11.30163,6.637838 v 0.704866 c -8.44306,0.02285 -16.85079,5.221358 -25.22121,10.562663 -8.388857,5.35308 -16.744637,10.851287 -24.951449,11.570353 -6.359846,0.557239 -13.23149,-0.40267 -19.456693,-1.507918 -6.225204,-1.105247 -11.791786,-2.357479 -15.621269,-2.357479 v 0.552421 c 3.707508,0 9.28542,1.239834 15.525151,2.34766 6.239729,1.107827 13.15271,2.080738 19.601904,1.51567 8.41726,-0.737505 16.815067,-6.306212 25.198979,-11.656136 8.365007,-5.337846 16.709067,-10.451227 24.924587,-10.474296 v 0.676961 l 1.69551,-0.955497 z m -29.110895,0.04289 v 0.769979 c -2.031582,0.0058 -3.988512,1.078095 -5.92677,2.638082 -1.943525,1.564225 -3.879066,3.631842 -5.857524,5.691125 -3.956917,4.118568 -8.082802,8.158675 -12.589929,8.158675 v 0.552421 c 4.832533,0 9.025069,-4.202976 12.988355,-8.328173 1.981644,-2.062598 3.907309,-4.117432 5.804813,-5.644617 1.891832,-1.522621 3.744817,-2.507149 5.581055,-2.513025 v 0.610299 l 1.695504,-0.955498 z m 33.938515,4.07417 c 0,4.009988 -2.21687,8.80102 -6.06475,13.710791 -3.84789,4.909772 -9.3151,9.938457 -15.76131,14.453381 -12.891039,9.028858 -29.696303,16.004208 -45.276322,16.005742 v -0.682129 l -1.695504,0.955497 1.695504,0.978752 v -0.699699 c 15.744766,-0.0015 32.628424,-7.02551 45.594642,-16.107027 6.48381,-4.541253 11.98697,-9.597299 15.87862,-14.562936 3.89167,-4.965637 6.18154,-9.840294 6.18154,-14.052372 z m -80.457123,28.954306 -0.978751,1.695504 h 0.714685 c -0.0033,3.024509 -0.237381,6.508313 0.283703,9.287805 0.262355,1.399412 0.717738,2.630078 1.523422,3.523299 0.805682,0.893222 1.96658,1.423687 3.527433,1.423686 v -0.554488 c -1.439292,0 -2.412753,-0.458761 -3.117639,-1.240235 -0.704888,-0.781474 -1.138947,-1.911666 -1.390613,-3.254065 -0.49988,-2.666381 -0.274931,-6.133696 -0.271818,-9.186002 h 0.665592 z" /></g></svg>
