<?xml version="1.0" encoding="UTF-8" standalone="no"?>
<!-- Created with Inkscape (http://www.inkscape.org/) -->

<svg
   width="1900"
   height="1600"
   viewBox="0 0 1900 1600"
   version="1.1"
   id="svg1"
   inkscape:version="1.3 (0e150ed6c4, 2023-07-21)"
   sodipodi:docname="busRoute2.svg"
   xmlns:inkscape="http://www.inkscape.org/namespaces/inkscape"
   xmlns:sodipodi="http://sodipodi.sourceforge.net/DTD/sodipodi-0.dtd"
   xmlns="http://www.w3.org/2000/svg"
   xmlns:svg="http://www.w3.org/2000/svg">
  <sodipodi:namedview
     id="namedview1"
     pagecolor="#ffffff"
     bordercolor="#000000"
     borderopacity="0.25"
     inkscape:showpageshadow="2"
     inkscape:pageopacity="0.0"
     inkscape:pagecheckerboard="0"
     inkscape:deskcolor="#d1d1d1"
     inkscape:document-units="px"
     inkscape:zoom="0.60865565"
     inkscape:cx="993.99389"
     inkscape:cy="1166.5052"
     inkscape:window-width="2706"
     inkscape:window-height="1528"
     inkscape:window-x="93"
     inkscape:window-y="183"
     inkscape:window-maximized="0"
     inkscape:current-layer="layer3" />
  <defs
     id="defs1" />
  <g
     inkscape:label="Layer 1"
     inkscape:groupmode="layer"
     id="layer1"
     style="display:inline">
    <g
       inkscape:groupmode="layer"
       id="layer2"
       inkscape:label="route"
       style="display:inline">
      <path
         id="rect20"
         style="display:inline;fill:#08943f;fill-opacity:1;stroke:none;stroke-width:9.57793;stroke-opacity:1"
         d="M 20,10 V 35 H 70 V 10 Z m 0,35 V 70 H 70 V 45 Z m 0,35 v 25 H 70 V 80 Z m 0,35 v 500 50 190 25 4.48438 V 905 h 710 v 105 50 320 22.7656 V 1430 h 975.748 v -27.2344 H 1710 V 860 855 H 780 V 615 H 778.34766 70 V 115 Z M 70,665 H 730 V 855 H 70 Z m 710,240 h 480 v 105 H 780 Z m 530,0 h 350 v 475 h -350 z m -530,155 h 480 v 320 H 780 Z" />
    </g>
    <g
       inkscape:groupmode="layer"
       id="layer3"
       inkscape:label="maru"
       style="display:inline">
      <path
         id="path2-1-0-3-6-0-0"
         style="display:inline;fill:#ffffff;fill-opacity:1;stroke:none;stroke-width:50;stroke-dasharray:none;stroke-opacity:1"
         d="m 45,140 a 20,20 0 0 0 -20,20 20,20 0 0 0 20,20 20,20 0 0 0 20,-20 20,20 0 0 0 -20,-20 z m 0,80 a 20,20 0 0 0 -20,20 20,20 0 0 0 20,20 20,20 0 0 0 20,-20 20,20 0 0 0 -20,-20 z m 0,80 a 20,20 0 0 0 -20,20 20,20 0 0 0 20,20 20,20 0 0 0 20,-20 20,20 0 0 0 -20,-20 z m 0,80 a 20,20 0 0 0 -20,20 20,20 0 0 0 20,20 20,20 0 0 0 20,-20 20,20 0 0 0 -20,-20 z m 0,80 a 20,20 0 0 0 -20,20 20,20 0 0 0 20,20 20,20 0 0 0 20,-20 20,20 0 0 0 -20,-20 z m 0,80 a 20,20 0 0 0 -20,20 20,20 0 0 0 20,20 20,20 0 0 0 20,-20 20,20 0 0 0 -20,-20 z m 315,80 a 20,20 0 0 0 -20,20 20,20 0 0 0 20,20 20,20 0 0 0 20,-20 20,20 0 0 0 -20,-20 z m 160,0 a 20,20 0 0 0 -20,20 20,20 0 0 0 20,20 20,20 0 0 0 20,-20 20,20 0 0 0 -20,-20 z m 80,0 a 20,20 0 0 0 -20,20 20,20 0 0 0 20,20 20,20 0 0 0 20,-20 20,20 0 0 0 -20,-20 z m 80,0 a 20,20 0 0 0 -20,20 20,20 0 0 0 20,20 20,20 0 0 0 20,-20 20,20 0 0 0 -20,-20 z m -252.89844,0.52734 v 36.91016 l 32.0918,-18.38086 z M 45,700 a 20,20 0 0 0 -20,20 20,20 0 0 0 20,20 20,20 0 0 0 20,-20 20,20 0 0 0 -20,-20 z m 710,0.5625 a 20,20 0 0 0 -20,20 20,20 0 0 0 20,20 20,20 0 0 0 20,-20 20,20 0 0 0 -20,-20 z M 45,780 a 20,20 0 0 0 -20,20 20,20 0 0 0 20,20 20,20 0 0 0 20,-20 20,20 0 0 0 -20,-20 z m 710,0.5625 a 20,20 0 0 0 -20,20 20,20 0 0 0 20,20 20,20 0 0 0 20,-20 20,20 0 0 0 -20,-20 z M 440,860 a 20,20 0 0 0 -20,20 20,20 0 0 0 20,20 20,20 0 0 0 20,-20 20,20 0 0 0 -20,-20 z m 80,0 a 20,20 0 0 0 -20,20 20,20 0 0 0 20,20 20,20 0 0 0 20,-20 20,20 0 0 0 -20,-20 z m 80,0 a 20,20 0 0 0 -20,20 20,20 0 0 0 20,20 20,20 0 0 0 20,-20 20,20 0 0 0 -20,-20 z m 600.9375,0 a 20,20 0 0 0 -20,20 20,20 0 0 0 20,20 20,20 0 0 0 20,-20 20,20 0 0 0 -20,-20 z m 279.4375,0 a 20,20 0 0 0 -20,20 20,20 0 0 0 20,20 20,20 0 0 0 20,-20 20,20 0 0 0 -20,-20 z m -1103.42969,1.45508 -32.09179,18.38086 32.09179,18.52734 z M 755,940.5625 a 20,20 0 0 0 -20,20 20,20 0 0 0 20,20 20,20 0 0 0 20,-20 20,20 0 0 0 -20,-20 z m 530,0 a 20,20 0 0 0 -20,20 20,20 0 0 0 20,20 20,20 0 0 0 20,-20 20,20 0 0 0 -20,-20 z m -205,73.918 a 20,20 0 0 0 -20,20 20,20 0 0 0 20,20 20,20 0 0 0 20,-20 20,20 0 0 0 -20,-20 z m 205,136.457 a 20,20 0 0 0 -20,20 20,20 0 0 0 20,20 20,20 0 0 0 20,-20 20,20 0 0 0 -20,-20 z m 400,0 a 20,20 0 0 0 -20,20 20,20 0 0 0 20,20 20,20 0 0 0 20,-20 20,20 0 0 0 -20,-20 z M 753.52734,1157.1719 735,1189.2637 h 36.9082 z M 755,1230.9375 a 20,20 0 0 0 -20,20 20,20 0 0 0 20,20 20,20 0 0 0 20,-20 20,20 0 0 0 -20,-20 z m 325,153.543 a 20,20 0 0 0 -20,20 20,20 0 0 0 20,20 20,20 0 0 0 20,-20 20,20 0 0 0 -20,-20 z" />
    </g>
    <text
       xml:space="preserve"
       style="font-size:48px;font-family:Onyx;-inkscape-font-specification:Onyx;display:inline;fill:#000000;fill-opacity:1;stroke:none;stroke-width:50;stroke-dasharray:none;stroke-opacity:1"
       x="87.75"
       y="578.43707"
       id="text2-1-3"><tspan
         sodipodi:role="line"
         id="tspan2-7-8"
         x="87.75"
         y="578.43707"
         style="font-style:normal;font-variant:normal;font-weight:normal;font-stretch:normal;font-size:48px;font-family:'MS Gothic';-inkscape-font-specification:'MS Gothic';fill:#000000;fill-opacity:1">六間坂上</tspan></text>
    <text
       xml:space="preserve"
       style="font-size:48px;font-family:Onyx;-inkscape-font-specification:Onyx;fill:#000000;fill-opacity:1;stroke:none;stroke-width:50;stroke-dasharray:none;stroke-opacity:1"
       x="87.75"
       y="178.43704"
       id="text2"><tspan
         sodipodi:role="line"
         id="tspan2"
         x="87.75"
         y="178.43704"
         style="font-style:normal;font-variant:normal;font-weight:normal;font-stretch:normal;font-size:48px;font-family:'MS Gothic';-inkscape-font-specification:'MS Gothic';fill:#000000;fill-opacity:1">和合町</tspan></text>
    <text
       xml:space="preserve"
       style="font-size:48px;font-family:Onyx;-inkscape-font-specification:Onyx;fill:#000000;fill-opacity:1;stroke:none;stroke-width:50;stroke-dasharray:none;stroke-opacity:1"
       x="87.75"
       y="258.43704"
       id="text2-1"><tspan
         sodipodi:role="line"
         id="tspan2-7"
         x="87.75"
         y="258.43704"
         style="font-style:normal;font-variant:normal;font-weight:normal;font-stretch:normal;font-size:48px;font-family:'MS Gothic';-inkscape-font-specification:'MS Gothic';fill:#000000;fill-opacity:1">住吉町</tspan></text>
    <text
       xml:space="preserve"
       style="font-size:48px;font-family:Onyx;-inkscape-font-specification:Onyx;fill:#000000;fill-opacity:1;stroke:none;stroke-width:50;stroke-dasharray:none;stroke-opacity:1"
       x="87.75"
       y="334.2435"
       id="text2-7"><tspan
         sodipodi:role="line"
         id="tspan2-6"
         x="87.75"
         y="334.2435"
         style="font-style:normal;font-variant:normal;font-weight:normal;font-stretch:normal;font-size:48px;font-family:'MS Gothic';-inkscape-font-specification:'MS Gothic';fill:#000000;fill-opacity:1">和地山上</tspan></text>
    <text
       xml:space="preserve"
       style="font-size:48px;font-family:Onyx;-inkscape-font-specification:Onyx;fill:#000000;fill-opacity:1;stroke:none;stroke-width:50;stroke-dasharray:none;stroke-opacity:1"
       x="87.75"
       y="418.43704"
       id="text2-1-0"><tspan
         sodipodi:role="line"
         id="tspan2-7-7"
         x="87.75"
         y="418.43704"
         style="font-style:normal;font-variant:normal;font-weight:normal;font-stretch:normal;font-size:48px;font-family:'MS Gothic';-inkscape-font-specification:'MS Gothic';fill:#000000;fill-opacity:1">和地山</tspan></text>
    <text
       xml:space="preserve"
       style="font-size:48px;font-family:Onyx;-inkscape-font-specification:Onyx;fill:#000000;fill-opacity:1;stroke:none;stroke-width:50;stroke-dasharray:none;stroke-opacity:1"
       x="87.75"
       y="498.43704"
       id="text2-4"><tspan
         sodipodi:role="line"
         id="tspan2-2"
         x="87.75"
         y="498.43704"
         style="font-style:normal;font-variant:normal;font-weight:normal;font-stretch:normal;font-size:48px;font-family:'MS Gothic';-inkscape-font-specification:'MS Gothic';fill:#000000;fill-opacity:1">静岡大学</tspan></text>
    <text
       xml:space="preserve"
       style="font-size:48px;font-family:Onyx;-inkscape-font-specification:Onyx;fill:#000000;fill-opacity:1;stroke:none;stroke-width:50;stroke-dasharray:none;stroke-opacity:1"
       x="361.5625"
       y="361.75003"
       id="text2-1-3-3"><tspan
         sodipodi:role="line"
         id="tspan2-7-8-3"
         x="361.5625"
         y="361.75003"
         style="font-style:normal;font-variant:normal;font-weight:normal;font-stretch:normal;font-family:'MS Gothic';-inkscape-font-specification:'MS Gothic';writing-mode:tb-rl;baseline-shift:baseline;fill:#000000;fill-opacity:1">追分小学校</tspan></text>
    <text
       xml:space="preserve"
       style="font-size:48px;font-family:Onyx;-inkscape-font-specification:Onyx;fill:#000000;fill-opacity:1;stroke:none;stroke-width:50;stroke-dasharray:none;stroke-opacity:1"
       x="87.75"
       y="818.43707"
       id="text2-2"><tspan
         sodipodi:role="line"
         id="tspan2-1"
         x="87.75"
         y="818.43707"
         style="font-style:normal;font-variant:normal;font-weight:normal;font-stretch:normal;font-size:48px;font-family:'MS Gothic';-inkscape-font-specification:'MS Gothic';fill:#000000;fill-opacity:1">浜松北高</tspan></text>
    <text
       xml:space="preserve"
       style="font-size:48px;font-family:Onyx;-inkscape-font-specification:Onyx;fill:#000000;fill-opacity:1;stroke:none;stroke-width:50;stroke-dasharray:none;stroke-opacity:1"
       x="87.75"
       y="738.43707"
       id="text2-1-0-2"><tspan
         sodipodi:role="line"
         id="tspan2-7-7-0"
         x="87.75"
         y="738.43707"
         style="font-style:normal;font-variant:normal;font-weight:normal;font-stretch:normal;font-size:48px;font-family:'MS Gothic';-inkscape-font-specification:'MS Gothic';fill:#000000;fill-opacity:1">さいが崖</tspan></text>
    <text
       xml:space="preserve"
       style="font-size:48px;font-family:Onyx;-inkscape-font-specification:Onyx;fill:#000000;fill-opacity:1;stroke:none;stroke-width:50;stroke-dasharray:none;stroke-opacity:1"
       x="441.5625"
       y="362.12503"
       id="text2-1-3-3-3"><tspan
         sodipodi:role="line"
         id="tspan2-7-8-3-2"
         x="441.5625"
         y="362.12503"
         style="font-style:normal;font-variant:normal;font-weight:normal;font-stretch:normal;font-family:'MS Gothic';-inkscape-font-specification:'MS Gothic';writing-mode:tb-rl;baseline-shift:baseline;fill:#000000;fill-opacity:1">城北一丁目</tspan></text>
    <text
       xml:space="preserve"
       style="font-size:48px;font-family:Onyx;-inkscape-font-specification:Onyx;fill:#000000;fill-opacity:1;stroke:none;stroke-width:50;stroke-dasharray:none;stroke-opacity:1"
       x="521.5625"
       y="412.00003"
       id="text2-1-3-3-6"><tspan
         sodipodi:role="line"
         id="tspan2-7-8-3-4"
         x="521.5625"
         y="412.00003"
         style="font-style:normal;font-variant:normal;font-weight:normal;font-stretch:normal;font-family:'MS Gothic';-inkscape-font-specification:'MS Gothic';writing-mode:tb-rl;baseline-shift:baseline;fill:#000000;fill-opacity:1">Ｕホール</tspan></text>
    <text
       xml:space="preserve"
       style="font-size:48px;font-family:Onyx;-inkscape-font-specification:Onyx;fill:#000000;fill-opacity:1;stroke:none;stroke-width:50;stroke-dasharray:none;stroke-opacity:1"
       x="601.5625"
       y="410.87503"
       id="text2-1-3-3-3-2"><tspan
         sodipodi:role="line"
         id="tspan2-7-8-3-2-8"
         x="601.5625"
         y="410.87503"
         style="font-style:normal;font-variant:normal;font-weight:normal;font-stretch:normal;font-family:'MS Gothic';-inkscape-font-specification:'MS Gothic';writing-mode:tb-rl;baseline-shift:baseline;fill:#000000;fill-opacity:1">下池川町</tspan></text>
    <text
       xml:space="preserve"
       style="font-size:48px;font-family:Onyx;-inkscape-font-specification:Onyx;fill:#000000;fill-opacity:1;stroke:none;stroke-width:50;stroke-dasharray:none;stroke-opacity:1"
       x="1202.5"
       y="700.43707"
       id="text2-1-3-3-61"><tspan
         sodipodi:role="line"
         id="tspan2-7-8-3-27"
         x="1202.5"
         y="700.43707"
         style="font-style:normal;font-variant:normal;font-weight:normal;font-stretch:normal;font-family:'MS Gothic';-inkscape-font-specification:'MS Gothic';writing-mode:tb-rl;baseline-shift:baseline;fill:#000000;fill-opacity:1">尾張町</tspan></text>
    <text
       xml:space="preserve"
       style="font-size:48px;font-family:Onyx;-inkscape-font-specification:Onyx;fill:#000000;fill-opacity:1;stroke:none;stroke-width:50;stroke-dasharray:none;stroke-opacity:1"
       x="1081.5625"
       y="1070.687"
       id="text2-1-3-3-61-4"><tspan
         sodipodi:role="line"
         id="tspan2-7-8-3-27-6"
         x="1081.5625"
         y="1070.687"
         style="font-style:normal;font-variant:normal;font-weight:normal;font-stretch:normal;font-family:'MS Gothic';-inkscape-font-specification:'MS Gothic';writing-mode:tb-rl;baseline-shift:baseline;fill:#000000;fill-opacity:1">ゆりの木通り</tspan></text>
    <text
       xml:space="preserve"
       style="font-size:48px;font-family:Onyx;-inkscape-font-specification:Onyx;fill:#000000;fill-opacity:1;stroke:none;stroke-width:50;stroke-dasharray:none;stroke-opacity:1"
       x="1081.5626"
       y="1440.6871"
       id="text2-1-3-3-61-4-9"><tspan
         sodipodi:role="line"
         id="tspan2-7-8-3-27-6-8"
         x="1081.5626"
         y="1440.6871"
         style="font-style:normal;font-variant:normal;font-weight:normal;font-stretch:normal;font-family:'MS Gothic';-inkscape-font-specification:'MS Gothic';writing-mode:tb-rl;baseline-shift:baseline;fill:#000000;fill-opacity:1">かじ町</tspan></text>
    <text
       xml:space="preserve"
       style="font-size:48px;font-family:Onyx;-inkscape-font-specification:Onyx;fill:#000000;fill-opacity:1;stroke:none;stroke-width:50;stroke-dasharray:none;stroke-opacity:1"
       x="1481.9375"
       y="702.49957"
       id="text2-1-3-3-6-4"><tspan
         sodipodi:role="line"
         id="tspan2-7-8-3-4-30"
         x="1481.9375"
         y="702.49957"
         style="font-style:normal;font-variant:normal;font-weight:normal;font-stretch:normal;font-family:'MS Gothic';-inkscape-font-specification:'MS Gothic';writing-mode:tb-rl;baseline-shift:baseline;fill:#000000;fill-opacity:1">常磐町</tspan></text>
    <text
       xml:space="preserve"
       style="font-size:48px;font-family:Onyx;-inkscape-font-specification:Onyx;fill:#000000;fill-opacity:1;stroke:none;stroke-width:50;stroke-dasharray:none;stroke-opacity:1"
       x="681.5625"
       y="458.31253"
       id="text2-1-3-3-3-2-6"><tspan
         sodipodi:role="line"
         id="tspan2-7-8-3-2-8-4"
         x="681.5625"
         y="458.31253"
         style="font-style:normal;font-variant:normal;font-weight:normal;font-stretch:normal;font-family:'MS Gothic';-inkscape-font-specification:'MS Gothic';writing-mode:tb-rl;baseline-shift:baseline;fill:#000000;fill-opacity:1">消防局</tspan></text>
    <text
       xml:space="preserve"
       style="font-size:48px;font-family:Onyx;-inkscape-font-specification:Onyx;fill:#000000;fill-opacity:1;stroke:none;stroke-width:50;stroke-dasharray:none;stroke-opacity:1"
       x="361.56201"
       y="917.74957"
       id="text2-1-3-3-34"><tspan
         sodipodi:role="line"
         id="tspan2-7-8-3-3"
         x="361.56201"
         y="917.74957"
         style="font-style:normal;font-variant:normal;font-weight:normal;font-stretch:normal;font-family:'MS Gothic';-inkscape-font-specification:'MS Gothic';writing-mode:tb-rl;baseline-shift:baseline;fill:#000000;fill-opacity:1">鹿谷町</tspan></text>
    <text
       xml:space="preserve"
       style="font-size:48px;font-family:Onyx;-inkscape-font-specification:Onyx;fill:#000000;fill-opacity:1;stroke:none;stroke-width:50;stroke-dasharray:none;stroke-opacity:1"
       x="441.56201"
       y="918.12457"
       id="text2-1-3-3-3-1"><tspan
         sodipodi:role="line"
         id="tspan2-7-8-3-2-85"
         x="441.56201"
         y="918.12457"
         style="font-style:normal;font-variant:normal;font-weight:normal;font-stretch:normal;font-family:'MS Gothic';-inkscape-font-specification:'MS Gothic';writing-mode:tb-rl;baseline-shift:baseline;fill:#000000;fill-opacity:1">鹿谷町南</tspan></text>
    <text
       xml:space="preserve"
       style="font-size:48px;font-family:Onyx;-inkscape-font-specification:Onyx;fill:#000000;fill-opacity:1;stroke:none;stroke-width:50;stroke-dasharray:none;stroke-opacity:1"
       x="521.56201"
       y="918.12457"
       id="text2-1-3-3-6-5"><tspan
         sodipodi:role="line"
         id="tspan2-7-8-3-4-3"
         x="521.56201"
         y="918.12457"
         style="font-style:normal;font-variant:normal;font-weight:normal;font-stretch:normal;font-family:'MS Gothic';-inkscape-font-specification:'MS Gothic';writing-mode:tb-rl;baseline-shift:baseline;fill:#000000;fill-opacity:1">美術館</tspan></text>
    <text
       xml:space="preserve"
       style="font-size:48px;font-family:Onyx;-inkscape-font-specification:Onyx;fill:#000000;fill-opacity:1;stroke:none;stroke-width:50;stroke-dasharray:none;stroke-opacity:1"
       x="601.56201"
       y="916.81207"
       id="text2-1-3-3-3-2-0"><tspan
         sodipodi:role="line"
         id="tspan2-7-8-3-2-8-0"
         x="601.56201"
         y="916.81207"
         style="font-style:normal;font-variant:normal;font-weight:normal;font-stretch:normal;font-family:'MS Gothic';-inkscape-font-specification:'MS Gothic';writing-mode:tb-rl;baseline-shift:baseline;fill:#000000;fill-opacity:1">市役所南</tspan></text>
    <text
       xml:space="preserve"
       style="font-size:48px;font-family:Onyx;-inkscape-font-specification:Onyx;fill:#000000;fill-opacity:1;stroke:none;stroke-width:50;stroke-dasharray:none;stroke-opacity:1"
       x="797.75"
       y="818.99957"
       id="text2-2-4"><tspan
         sodipodi:role="line"
         id="tspan2-1-0"
         x="797.75"
         y="818.99957"
         style="font-style:normal;font-variant:normal;font-weight:normal;font-stretch:normal;font-size:48px;font-family:'MS Gothic';-inkscape-font-specification:'MS Gothic';fill:#000000;fill-opacity:1">市役所前</tspan></text>
    <text
       xml:space="preserve"
       style="font-size:48px;font-family:Onyx;-inkscape-font-specification:Onyx;fill:#000000;fill-opacity:1;stroke:none;stroke-width:50;stroke-dasharray:none;stroke-opacity:1"
       x="797.75"
       y="738.99957"
       id="text2-1-0-2-9"><tspan
         sodipodi:role="line"
         id="tspan2-7-7-0-8"
         x="797.75"
         y="738.99957"
         style="font-style:normal;font-variant:normal;font-weight:normal;font-stretch:normal;font-size:48px;font-family:'MS Gothic';-inkscape-font-specification:'MS Gothic';fill:#000000;fill-opacity:1">浜松城公園入口</tspan></text>
    <text
       xml:space="preserve"
       style="font-size:48px;font-family:Onyx;-inkscape-font-specification:Onyx;fill:#000000;fill-opacity:1;stroke:none;stroke-width:50;stroke-dasharray:none;stroke-opacity:1"
       x="797.75"
       y="978.99957"
       id="text2-1-0-2-9-0"><tspan
         sodipodi:role="line"
         id="tspan2-7-7-0-8-0"
         x="797.75"
         y="978.99957"
         style="font-style:normal;font-variant:normal;font-weight:normal;font-stretch:normal;font-size:48px;font-family:'MS Gothic';-inkscape-font-specification:'MS Gothic';fill:#000000;fill-opacity:1">元城町</tspan></text>
    <text
       xml:space="preserve"
       style="font-size:48px;font-family:Onyx;-inkscape-font-specification:Onyx;fill:#000000;fill-opacity:1;stroke:none;stroke-width:50;stroke-dasharray:none;stroke-opacity:1"
       x="1327.75"
       y="978.99957"
       id="text2-1-0-2-9-0-1"><tspan
         sodipodi:role="line"
         id="tspan2-7-7-0-8-0-8"
         x="1327.75"
         y="978.99957"
         style="font-style:normal;font-variant:normal;font-weight:normal;font-stretch:normal;font-size:48px;font-family:'MS Gothic';-inkscape-font-specification:'MS Gothic';fill:#000000;fill-opacity:1">田町</tspan></text>
    <text
       xml:space="preserve"
       style="font-size:48px;font-family:Onyx;-inkscape-font-specification:Onyx;fill:#000000;fill-opacity:1;stroke:none;stroke-width:50;stroke-dasharray:none;stroke-opacity:1"
       x="797.75"
       y="1269.3755"
       id="text2-2-4-9-6"><tspan
         sodipodi:role="line"
         id="tspan2-1-0-5-9"
         x="797.75"
         y="1269.3755"
         style="font-style:normal;font-variant:normal;font-weight:normal;font-stretch:normal;font-size:48px;font-family:'MS Gothic';-inkscape-font-specification:'MS Gothic';fill:#000000;fill-opacity:1">伝馬町</tspan></text>
    <text
       xml:space="preserve"
       style="font-size:48px;font-family:Onyx;-inkscape-font-specification:Onyx;fill:#000000;fill-opacity:1;stroke:none;stroke-width:50;stroke-dasharray:none;stroke-opacity:1"
       x="797.75"
       y="1189.3755"
       id="text2-1-0-2-9-0-7"><tspan
         sodipodi:role="line"
         id="tspan2-7-7-0-8-0-2"
         x="797.75"
         y="1189.3755"
         style="font-style:normal;font-variant:normal;font-weight:normal;font-stretch:normal;font-size:48px;font-family:'MS Gothic';-inkscape-font-specification:'MS Gothic';fill:#000000;fill-opacity:1">連尺</tspan></text>
    <text
       xml:space="preserve"
       style="font-size:48px;font-family:Onyx;-inkscape-font-specification:Onyx;fill:#000000;fill-opacity:1;stroke:none;stroke-width:50;stroke-dasharray:none;stroke-opacity:1"
       x="1727.75"
       y="1189.375"
       id="text2-1-0-2-9-0-7-9"><tspan
         sodipodi:role="line"
         id="tspan2-7-7-0-8-0-2-8"
         x="1727.75"
         y="1189.375"
         style="font-style:normal;font-variant:normal;font-weight:normal;font-stretch:normal;font-size:48px;font-family:'MS Gothic';-inkscape-font-specification:'MS Gothic';fill:#000000;fill-opacity:1">広小路</tspan></text>
    <text
       xml:space="preserve"
       style="font-size:48px;font-family:Onyx;-inkscape-font-specification:Onyx;fill:#000000;fill-opacity:1;stroke:none;stroke-width:50;stroke-dasharray:none;stroke-opacity:1"
       x="1327.75"
       y="1189.3755"
       id="text2-1-0-2-9-0-7-0"><tspan
         sodipodi:role="line"
         id="tspan2-7-7-0-8-0-2-5"
         x="1327.75"
         y="1189.3755"
         style="font-style:normal;font-variant:normal;font-weight:normal;font-stretch:normal;font-size:48px;font-family:'MS Gothic';-inkscape-font-specification:'MS Gothic';fill:#000000;fill-opacity:1">田町中央通り</tspan></text>
    <rect
       style="fill:#ffffff;fill-opacity:1;stroke:#000000;stroke-width:7.43;stroke-dasharray:none;stroke-opacity:1"
       id="rect3"
       width="204.91917"
       height="98.417603"
       x="1594.5415"
       y="1348.7073"
       ry="8.6329861" />
    <text
       xml:space="preserve"
       style="font-size:48px;font-family:Onyx;-inkscape-font-specification:Onyx;fill:#000000;fill-opacity:1;stroke:none;stroke-width:50;stroke-dasharray:none;stroke-opacity:1"
       x="1624.7197"
       y="1414.6035"
       id="text2-1-0-2-9-0-7-9-5"><tspan
         sodipodi:role="line"
         id="tspan2-7-7-0-8-0-2-8-1"
         x="1624.7197"
         y="1414.6035"
         style="font-style:normal;font-variant:normal;font-weight:normal;font-stretch:normal;font-size:48px;font-family:'MS Gothic';-inkscape-font-specification:'MS Gothic';fill:#000000;fill-opacity:1">浜松駅</tspan></text>
  </g>
</svg>
