<svg width="1850.438" height="1571.125" xmlns="http://www.w3.org/2000/svg"><g style="display:inline" transform="translate(-20 -10)"><g style="display:inline"><path style="display:inline;fill:#08943f;fill-opacity:1;stroke:none;stroke-width:9.57793;stroke-opacity:1" d="M20 10v25h50V10Zm0 35v25h50V45Zm0 35v25h50V80Zm0 35v790h710v525h975.748v-27.234H1710V855H780V615H70V115Zm50 550h660v190H70Zm710 240h480v105H780Zm530 0h350v475h-350zm-530 155h480v320H780Z"/></g><g style="display:inline"><path style="display:inline;fill:#fff;fill-opacity:1;stroke:none;stroke-width:50;stroke-dasharray:none;stroke-opacity:1" d="M45 140a20 20 0 0 0-20 20 20 20 0 0 0 20 20 20 20 0 0 0 20-20 20 20 0 0 0-20-20zm0 80a20 20 0 0 0-20 20 20 20 0 0 0 20 20 20 20 0 0 0 20-20 20 20 0 0 0-20-20zm0 80a20 20 0 0 0-20 20 20 20 0 0 0 20 20 20 20 0 0 0 20-20 20 20 0 0 0-20-20zm0 80a20 20 0 0 0-20 20 20 20 0 0 0 20 20 20 20 0 0 0 20-20 20 20 0 0 0-20-20zm0 80a20 20 0 0 0-20 20 20 20 0 0 0 20 20 20 20 0 0 0 20-20 20 20 0 0 0-20-20zm0 80a20 20 0 0 0-20 20 20 20 0 0 0 20 20 20 20 0 0 0 20-20 20 20 0 0 0-20-20zm315 80a20 20 0 0 0-20 20 20 20 0 0 0 20 20 20 20 0 0 0 20-20 20 20 0 0 0-20-20zm160 0a20 20 0 0 0-20 20 20 20 0 0 0 20 20 20 20 0 0 0 20-20 20 20 0 0 0-20-20zm80 0a20 20 0 0 0-20 20 20 20 0 0 0 20 20 20 20 0 0 0 20-20 20 20 0 0 0-20-20zm80 0a20 20 0 0 0-20 20 20 20 0 0 0 20 20 20 20 0 0 0 20-20 20 20 0 0 0-20-20zm-252.898.527v36.91l32.091-18.38zM45 700a20 20 0 0 0-20 20 20 20 0 0 0 20 20 20 20 0 0 0 20-20 20 20 0 0 0-20-20zm710 .563a20 20 0 0 0-20 20 20 20 0 0 0 20 20 20 20 0 0 0 20-20 20 20 0 0 0-20-20zM45 780a20 20 0 0 0-20 20 20 20 0 0 0 20 20 20 20 0 0 0 20-20 20 20 0 0 0-20-20zm710 .563a20 20 0 0 0-20 20 20 20 0 0 0 20 20 20 20 0 0 0 20-20 20 20 0 0 0-20-20zM440 860a20 20 0 0 0-20 20 20 20 0 0 0 20 20 20 20 0 0 0 20-20 20 20 0 0 0-20-20zm80 0a20 20 0 0 0-20 20 20 20 0 0 0 20 20 20 20 0 0 0 20-20 20 20 0 0 0-20-20zm80 0a20 20 0 0 0-20 20 20 20 0 0 0 20 20 20 20 0 0 0 20-20 20 20 0 0 0-20-20zm600.938 0a20 20 0 0 0-20 20 20 20 0 0 0 20 20 20 20 0 0 0 20-20 20 20 0 0 0-20-20zm279.437 0a20 20 0 0 0-20 20 20 20 0 0 0 20 20 20 20 0 0 0 20-20 20 20 0 0 0-20-20zm-1103.43 1.455-32.091 18.38 32.091 18.528zM755 940.562a20 20 0 0 0-20 20 20 20 0 0 0 20 20 20 20 0 0 0 20-20 20 20 0 0 0-20-20zm530 0a20 20 0 0 0-20 20 20 20 0 0 0 20 20 20 20 0 0 0 20-20 20 20 0 0 0-20-20zm-205 73.918a20 20 0 0 0-20 20 20 20 0 0 0 20 20 20 20 0 0 0 20-20 20 20 0 0 0-20-20zm205 136.457a20 20 0 0 0-20 20 20 20 0 0 0 20 20 20 20 0 0 0 20-20 20 20 0 0 0-20-20zm400 0a20 20 0 0 0-20 20 20 20 0 0 0 20 20 20 20 0 0 0 20-20 20 20 0 0 0-20-20zm-931.473 6.235L735 1189.264h36.908zm1.473 73.765a20 20 0 0 0-20 20 20 20 0 0 0 20 20 20 20 0 0 0 20-20 20 20 0 0 0-20-20zm325 153.544a20 20 0 0 0-20 20 20 20 0 0 0 20 20 20 20 0 0 0 20-20 20 20 0 0 0-20-20z"/></g><text xml:space="preserve" style="font-size:48px;font-family:Onyx;-inkscape-font-specification:Onyx;display:inline;fill:#000;fill-opacity:1;stroke:none;stroke-width:50;stroke-dasharray:none;stroke-opacity:1" x="87.75" y="578.437"><tspan x="87.75" y="578.437" style="font-style:normal;font-variant:normal;font-weight:400;font-stretch:normal;font-size:48px;font-family:'MS Gothic';-inkscape-font-specification:'MS Gothic';fill:#000;fill-opacity:1">六間坂上</tspan></text><text xml:space="preserve" style="font-size:48px;font-family:Onyx;-inkscape-font-specification:Onyx;fill:#000;fill-opacity:1;stroke:none;stroke-width:50;stroke-dasharray:none;stroke-opacity:1" x="87.75" y="178.437"><tspan x="87.75" y="178.437" style="font-style:normal;font-variant:normal;font-weight:400;font-stretch:normal;font-size:48px;font-family:'MS Gothic';-inkscape-font-specification:'MS Gothic';fill:#000;fill-opacity:1">和合町</tspan></text><text xml:space="preserve" style="font-size:48px;font-family:Onyx;-inkscape-font-specification:Onyx;fill:#000;fill-opacity:1;stroke:none;stroke-width:50;stroke-dasharray:none;stroke-opacity:1" x="87.75" y="258.437"><tspan x="87.75" y="258.437" style="font-style:normal;font-variant:normal;font-weight:400;font-stretch:normal;font-size:48px;font-family:'MS Gothic';-inkscape-font-specification:'MS Gothic';fill:#000;fill-opacity:1">住吉町</tspan></text><text xml:space="preserve" style="font-size:48px;font-family:Onyx;-inkscape-font-specification:Onyx;fill:#000;fill-opacity:1;stroke:none;stroke-width:50;stroke-dasharray:none;stroke-opacity:1" x="87.75" y="334.243"><tspan x="87.75" y="334.243" style="font-style:normal;font-variant:normal;font-weight:400;font-stretch:normal;font-size:48px;font-family:'MS Gothic';-inkscape-font-specification:'MS Gothic';fill:#000;fill-opacity:1">和地山上</tspan></text><text xml:space="preserve" style="font-size:48px;font-family:Onyx;-inkscape-font-specification:Onyx;fill:#000;fill-opacity:1;stroke:none;stroke-width:50;stroke-dasharray:none;stroke-opacity:1" x="87.75" y="418.437"><tspan x="87.75" y="418.437" style="font-style:normal;font-variant:normal;font-weight:400;font-stretch:normal;font-size:48px;font-family:'MS Gothic';-inkscape-font-specification:'MS Gothic';fill:#000;fill-opacity:1">和地山</tspan></text><text xml:space="preserve" style="font-size:48px;font-family:Onyx;-inkscape-font-specification:Onyx;fill:#000;fill-opacity:1;stroke:none;stroke-width:50;stroke-dasharray:none;stroke-opacity:1" x="87.75" y="498.437"><tspan x="87.75" y="498.437" style="font-style:normal;font-variant:normal;font-weight:400;font-stretch:normal;font-size:48px;font-family:'MS Gothic';-inkscape-font-specification:'MS Gothic';fill:#000;fill-opacity:1">静岡大学</tspan></text><text xml:space="preserve" style="font-size:48px;font-family:Onyx;-inkscape-font-specification:Onyx;fill:#000;fill-opacity:1;stroke:none;stroke-width:50;stroke-dasharray:none;stroke-opacity:1" x="361.563" y="361.75"><tspan x="361.563" y="361.75" style="font-style:normal;font-variant:normal;font-weight:400;font-stretch:normal;font-family:'MS Gothic';-inkscape-font-specification:'MS Gothic';writing-mode:tb-rl;baseline-shift:baseline;fill:#000;fill-opacity:1">追分小学校</tspan></text><text xml:space="preserve" style="font-size:48px;font-family:Onyx;-inkscape-font-specification:Onyx;fill:#000;fill-opacity:1;stroke:none;stroke-width:50;stroke-dasharray:none;stroke-opacity:1" x="87.75" y="818.437"><tspan x="87.75" y="818.437" style="font-style:normal;font-variant:normal;font-weight:400;font-stretch:normal;font-size:48px;font-family:'MS Gothic';-inkscape-font-specification:'MS Gothic';fill:#000;fill-opacity:1">浜松北高</tspan></text><text xml:space="preserve" style="font-size:48px;font-family:Onyx;-inkscape-font-specification:Onyx;fill:#000;fill-opacity:1;stroke:none;stroke-width:50;stroke-dasharray:none;stroke-opacity:1" x="87.75" y="738.437"><tspan x="87.75" y="738.437" style="font-style:normal;font-variant:normal;font-weight:400;font-stretch:normal;font-size:48px;font-family:'MS Gothic';-inkscape-font-specification:'MS Gothic';fill:#000;fill-opacity:1">さいが崖</tspan></text><text xml:space="preserve" style="font-size:48px;font-family:Onyx;-inkscape-font-specification:Onyx;fill:#000;fill-opacity:1;stroke:none;stroke-width:50;stroke-dasharray:none;stroke-opacity:1" x="441.563" y="362.125"><tspan x="441.563" y="362.125" style="font-style:normal;font-variant:normal;font-weight:400;font-stretch:normal;font-family:'MS Gothic';-inkscape-font-specification:'MS Gothic';writing-mode:tb-rl;baseline-shift:baseline;fill:#000;fill-opacity:1">城北一丁目</tspan></text><text xml:space="preserve" style="font-size:48px;font-family:Onyx;-inkscape-font-specification:Onyx;fill:#000;fill-opacity:1;stroke:none;stroke-width:50;stroke-dasharray:none;stroke-opacity:1" x="521.563" y="412"><tspan x="521.563" y="412" style="font-style:normal;font-variant:normal;font-weight:400;font-stretch:normal;font-family:'MS Gothic';-inkscape-font-specification:'MS Gothic';writing-mode:tb-rl;baseline-shift:baseline;fill:#000;fill-opacity:1">Ｕホール</tspan></text><text xml:space="preserve" style="font-size:48px;font-family:Onyx;-inkscape-font-specification:Onyx;fill:#000;fill-opacity:1;stroke:none;stroke-width:50;stroke-dasharray:none;stroke-opacity:1" x="601.563" y="410.875"><tspan x="601.563" y="410.875" style="font-style:normal;font-variant:normal;font-weight:400;font-stretch:normal;font-family:'MS Gothic';-inkscape-font-specification:'MS Gothic';writing-mode:tb-rl;baseline-shift:baseline;fill:#000;fill-opacity:1">下池川町</tspan></text><text xml:space="preserve" style="font-size:48px;font-family:Onyx;-inkscape-font-specification:Onyx;fill:#000;fill-opacity:1;stroke:none;stroke-width:50;stroke-dasharray:none;stroke-opacity:1" x="1202.5" y="700.437"><tspan x="1202.5" y="700.437" style="font-style:normal;font-variant:normal;font-weight:400;font-stretch:normal;font-family:'MS Gothic';-inkscape-font-specification:'MS Gothic';writing-mode:tb-rl;baseline-shift:baseline;fill:#000;fill-opacity:1">尾張町</tspan></text><text xml:space="preserve" style="font-size:48px;font-family:Onyx;-inkscape-font-specification:Onyx;fill:#000;fill-opacity:1;stroke:none;stroke-width:50;stroke-dasharray:none;stroke-opacity:1" x="1081.563" y="1070.687"><tspan x="1081.563" y="1070.687" style="font-style:normal;font-variant:normal;font-weight:400;font-stretch:normal;font-family:'MS Gothic';-inkscape-font-specification:'MS Gothic';writing-mode:tb-rl;baseline-shift:baseline;fill:#000;fill-opacity:1">ゆりの木通り</tspan></text><text xml:space="preserve" style="font-size:48px;font-family:Onyx;-inkscape-font-specification:Onyx;fill:#000;fill-opacity:1;stroke:none;stroke-width:50;stroke-dasharray:none;stroke-opacity:1" x="1081.563" y="1440.687"><tspan x="1081.563" y="1440.687" style="font-style:normal;font-variant:normal;font-weight:400;font-stretch:normal;font-family:'MS Gothic';-inkscape-font-specification:'MS Gothic';writing-mode:tb-rl;baseline-shift:baseline;fill:#000;fill-opacity:1">かじ町</tspan></text><text xml:space="preserve" style="font-size:48px;font-family:Onyx;-inkscape-font-specification:Onyx;fill:#000;fill-opacity:1;stroke:none;stroke-width:50;stroke-dasharray:none;stroke-opacity:1" x="1481.938" y="702.5"><tspan x="1481.938" y="702.5" style="font-style:normal;font-variant:normal;font-weight:400;font-stretch:normal;font-family:'MS Gothic';-inkscape-font-specification:'MS Gothic';writing-mode:tb-rl;baseline-shift:baseline;fill:#000;fill-opacity:1">常磐町</tspan></text><text xml:space="preserve" style="font-size:48px;font-family:Onyx;-inkscape-font-specification:Onyx;fill:#000;fill-opacity:1;stroke:none;stroke-width:50;stroke-dasharray:none;stroke-opacity:1" x="681.563" y="458.313"><tspan x="681.563" y="458.313" style="font-style:normal;font-variant:normal;font-weight:400;font-stretch:normal;font-family:'MS Gothic';-inkscape-font-specification:'MS Gothic';writing-mode:tb-rl;baseline-shift:baseline;fill:#000;fill-opacity:1">消防局</tspan></text><text xml:space="preserve" style="font-size:48px;font-family:Onyx;-inkscape-font-specification:Onyx;fill:#000;fill-opacity:1;stroke:none;stroke-width:50;stroke-dasharray:none;stroke-opacity:1" x="361.562" y="917.75"><tspan x="361.562" y="917.75" style="font-style:normal;font-variant:normal;font-weight:400;font-stretch:normal;font-family:'MS Gothic';-inkscape-font-specification:'MS Gothic';writing-mode:tb-rl;baseline-shift:baseline;fill:#000;fill-opacity:1">鹿谷町</tspan></text><text xml:space="preserve" style="font-size:48px;font-family:Onyx;-inkscape-font-specification:Onyx;fill:#000;fill-opacity:1;stroke:none;stroke-width:50;stroke-dasharray:none;stroke-opacity:1" x="441.562" y="918.125"><tspan x="441.562" y="918.125" style="font-style:normal;font-variant:normal;font-weight:400;font-stretch:normal;font-family:'MS Gothic';-inkscape-font-specification:'MS Gothic';writing-mode:tb-rl;baseline-shift:baseline;fill:#000;fill-opacity:1">鹿谷町南</tspan></text><text xml:space="preserve" style="font-size:48px;font-family:Onyx;-inkscape-font-specification:Onyx;fill:#000;fill-opacity:1;stroke:none;stroke-width:50;stroke-dasharray:none;stroke-opacity:1" x="521.562" y="918.125"><tspan x="521.562" y="918.125" style="font-style:normal;font-variant:normal;font-weight:400;font-stretch:normal;font-family:'MS Gothic';-inkscape-font-specification:'MS Gothic';writing-mode:tb-rl;baseline-shift:baseline;fill:#000;fill-opacity:1">美術館</tspan></text><text xml:space="preserve" style="font-size:48px;font-family:Onyx;-inkscape-font-specification:Onyx;fill:#000;fill-opacity:1;stroke:none;stroke-width:50;stroke-dasharray:none;stroke-opacity:1" x="601.562" y="916.812"><tspan x="601.562" y="916.812" style="font-style:normal;font-variant:normal;font-weight:400;font-stretch:normal;font-family:'MS Gothic';-inkscape-font-specification:'MS Gothic';writing-mode:tb-rl;baseline-shift:baseline;fill:#000;fill-opacity:1">市役所南</tspan></text><text xml:space="preserve" style="font-size:48px;font-family:Onyx;-inkscape-font-specification:Onyx;fill:#000;fill-opacity:1;stroke:none;stroke-width:50;stroke-dasharray:none;stroke-opacity:1" x="797.75" y="819"><tspan x="797.75" y="819" style="font-style:normal;font-variant:normal;font-weight:400;font-stretch:normal;font-size:48px;font-family:'MS Gothic';-inkscape-font-specification:'MS Gothic';fill:#000;fill-opacity:1">市役所前</tspan></text><text xml:space="preserve" style="font-size:48px;font-family:Onyx;-inkscape-font-specification:Onyx;fill:#000;fill-opacity:1;stroke:none;stroke-width:50;stroke-dasharray:none;stroke-opacity:1" x="797.75" y="739"><tspan x="797.75" y="739" style="font-style:normal;font-variant:normal;font-weight:400;font-stretch:normal;font-size:48px;font-family:'MS Gothic';-inkscape-font-specification:'MS Gothic';fill:#000;fill-opacity:1">浜松城公園入口</tspan></text><text xml:space="preserve" style="font-size:48px;font-family:Onyx;-inkscape-font-specification:Onyx;fill:#000;fill-opacity:1;stroke:none;stroke-width:50;stroke-dasharray:none;stroke-opacity:1" x="797.75" y="979"><tspan x="797.75" y="979" style="font-style:normal;font-variant:normal;font-weight:400;font-stretch:normal;font-size:48px;font-family:'MS Gothic';-inkscape-font-specification:'MS Gothic';fill:#000;fill-opacity:1">元城町</tspan></text><text xml:space="preserve" style="font-size:48px;font-family:Onyx;-inkscape-font-specification:Onyx;fill:#000;fill-opacity:1;stroke:none;stroke-width:50;stroke-dasharray:none;stroke-opacity:1" x="1327.75" y="979"><tspan x="1327.75" y="979" style="font-style:normal;font-variant:normal;font-weight:400;font-stretch:normal;font-size:48px;font-family:'MS Gothic';-inkscape-font-specification:'MS Gothic';fill:#000;fill-opacity:1">田町</tspan></text><text xml:space="preserve" style="font-size:48px;font-family:Onyx;-inkscape-font-specification:Onyx;fill:#000;fill-opacity:1;stroke:none;stroke-width:50;stroke-dasharray:none;stroke-opacity:1" x="797.75" y="1269.376"><tspan x="797.75" y="1269.376" style="font-style:normal;font-variant:normal;font-weight:400;font-stretch:normal;font-size:48px;font-family:'MS Gothic';-inkscape-font-specification:'MS Gothic';fill:#000;fill-opacity:1">伝馬町</tspan></text><text xml:space="preserve" style="font-size:48px;font-family:Onyx;-inkscape-font-specification:Onyx;fill:#000;fill-opacity:1;stroke:none;stroke-width:50;stroke-dasharray:none;stroke-opacity:1" x="797.75" y="1189.376"><tspan x="797.75" y="1189.376" style="font-style:normal;font-variant:normal;font-weight:400;font-stretch:normal;font-size:48px;font-family:'MS Gothic';-inkscape-font-specification:'MS Gothic';fill:#000;fill-opacity:1">連尺</tspan></text><text xml:space="preserve" style="font-size:48px;font-family:Onyx;-inkscape-font-specification:Onyx;fill:#000;fill-opacity:1;stroke:none;stroke-width:50;stroke-dasharray:none;stroke-opacity:1" x="1727.75" y="1189.375"><tspan x="1727.75" y="1189.375" style="font-style:normal;font-variant:normal;font-weight:400;font-stretch:normal;font-size:48px;font-family:'MS Gothic';-inkscape-font-specification:'MS Gothic';fill:#000;fill-opacity:1">広小路</tspan></text><text xml:space="preserve" style="font-size:48px;font-family:Onyx;-inkscape-font-specification:Onyx;fill:#000;fill-opacity:1;stroke:none;stroke-width:50;stroke-dasharray:none;stroke-opacity:1" x="1327.75" y="1189.376"><tspan x="1327.75" y="1189.376" style="font-style:normal;font-variant:normal;font-weight:400;font-stretch:normal;font-size:48px;font-family:'MS Gothic';-inkscape-font-specification:'MS Gothic';fill:#000;fill-opacity:1">田町中央通り</tspan></text><rect style="fill:#fff;fill-opacity:1;stroke:#000;stroke-width:7.43;stroke-dasharray:none;stroke-opacity:1" width="204.919" height="98.418" x="1594.542" y="1348.707" ry="8.633"/><text xml:space="preserve" style="font-size:48px;font-family:Onyx;-inkscape-font-specification:Onyx;fill:#000;fill-opacity:1;stroke:none;stroke-width:50;stroke-dasharray:none;stroke-opacity:1" x="1624.72" y="1414.603"><tspan x="1624.72" y="1414.603" style="font-style:normal;font-variant:normal;font-weight:400;font-stretch:normal;font-size:48px;font-family:'MS Gothic';-inkscape-font-specification:'MS Gothic';fill:#000;fill-opacity:1">浜松駅</tspan></text></g></svg>